<?xml version="1.0" encoding="UTF-8"?>
<svg id="Capa_1" data-name="Capa 1" xmlns="http://www.w3.org/2000/svg" viewBox="0 0 540 176.08">
  <defs>
    <style>
      .cls-1 {
        fill: #4aa8a3;
      }

      .cls-1, .cls-2, .cls-3, .cls-4, .cls-5, .cls-6, .cls-7 {
        stroke-width: 0px;
      }

      .cls-2 {
        fill: #4a4a49;
      }

      .cls-3 {
        fill: #70706d;
      }

      .cls-4 {
        fill: #1d1d1b;
      }

      .cls-5 {
        fill: #ca003d;
      }

      .cls-6 {
        fill: #32aca6;
      }

      .cls-7 {
        fill: #6b6e6c;
      }
    </style>
  </defs>
  <g>
    <g>
      <path class="cls-4" d="M374.08,74.97v-14.48h1.29v14.48h-1.29Z"/>
      <path class="cls-4" d="M380.18,74.97h-1.23v-10.42h1.23v.77c1.17-.65,2.3-.98,3.4-.98,1.39,0,2.32.37,2.78,1.11.47.73.7,2.08.7,4.04v5.48h-1.25v-5.42c0-1.59-.15-2.68-.46-3.24-.31-.56-.96-.84-1.96-.84-.49,0-1,.07-1.53.22-.54.15-.95.3-1.24.45l-.44.21v8.63Z"/>
      <path class="cls-4" d="M393.41,65.49c-1.64,0-2.46.59-2.46,1.77,0,.54.18.92.54,1.15.36.22,1.18.44,2.45.66,1.27.21,2.17.51,2.69.88.52.38.78,1.1.78,2.16s-.34,1.84-1.02,2.33c-.68.49-1.68.74-3,.74-.76,0-1.75-.1-2.96-.29l-.61-.08.09-1.1c1.55.24,2.75.35,3.58.35s1.48-.15,1.95-.44c.47-.29.7-.78.7-1.48s-.19-1.16-.57-1.39c-.38-.23-1.2-.44-2.46-.63-1.25-.19-2.14-.47-2.66-.83-.51-.36-.77-1.04-.77-2.04s.35-1.73,1.06-2.19c.71-.46,1.58-.69,2.63-.69.83,0,1.87.09,3.12.27l.56.08-.04,1.1c-1.48-.22-2.69-.33-3.6-.33Z"/>
      <path class="cls-4" d="M405.41,65.65h-3.48v5.14c0,1.35.1,2.23.29,2.65.2.42.65.63,1.37.63l1.92-.15.08,1.06c-.92.14-1.62.21-2.1.21-1.06,0-1.79-.26-2.2-.78-.41-.52-.61-1.52-.61-2.99v-5.77h-1.54v-1.1h1.54v-3.27h1.25v3.27h3.48v1.1Z"/>
      <path class="cls-4" d="M407.58,61.94v-1.56h1.23v1.56h-1.23ZM407.58,74.97v-10.42h1.23v10.42h-1.23Z"/>
      <path class="cls-4" d="M417.41,65.65h-3.48v5.14c0,1.35.1,2.23.29,2.65.19.42.65.63,1.37.63l1.92-.15.08,1.06c-.92.14-1.62.21-2.11.21-1.06,0-1.79-.26-2.2-.78-.41-.52-.61-1.52-.61-2.99v-5.77h-1.55v-1.1h1.55v-3.27h1.25v3.27h3.48v1.1Z"/>
      <path class="cls-4" d="M426.16,64.55h1.23v10.42h-1.23v-.77c-1.07.65-2.14.98-3.21.98-1.41,0-2.35-.36-2.8-1.08-.45-.72-.68-2.09-.68-4.11v-5.44h1.23v5.41c0,1.61.15,2.7.45,3.25.3.55.95.83,1.95.83.49,0,.99-.07,1.5-.22.51-.14.9-.29,1.17-.45l.4-.21v-8.62Z"/>
      <path class="cls-4" d="M436,65.65h-3.48v5.14c0,1.35.1,2.23.29,2.65.19.42.65.63,1.37.63l1.92-.15.09,1.06c-.92.14-1.62.21-2.11.21-1.06,0-1.79-.26-2.2-.78-.41-.52-.62-1.52-.62-2.99v-5.77h-1.54v-1.1h1.54v-3.27h1.25v3.27h3.48v1.1Z"/>
      <path class="cls-4" d="M450.74,59.92v15.04h-1.25v-.77c-1.1.65-2.21.98-3.33.98-.51,0-.96-.06-1.33-.18-.37-.12-.76-.35-1.14-.7-.79-.71-1.19-2.09-1.19-4.16s.33-3.54,1-4.45c.67-.9,1.79-1.35,3.38-1.35.61,0,1.48.09,2.62.27v-4.69h1.25ZM445.38,73.9c.26.1.59.15,1,.15s.88-.08,1.42-.23c.53-.15.95-.3,1.26-.44l.44-.23v-7.46c-1.11-.17-1.97-.25-2.58-.25-1.18,0-2,.36-2.45,1.08-.45.72-.68,1.84-.68,3.35,0,1.78.27,2.94.81,3.48.26.26.53.44.78.54Z"/>
      <path class="cls-4" d="M453.68,64.48l.88-4.4h1.33l-1.21,4.4h-1Z"/>
      <path class="cls-4" d="M458.83,74.97v-14.48h1.29v14.48h-1.29Z"/>
      <path class="cls-4" d="M464.93,74.97h-1.23v-10.42h1.23v.77c1.17-.65,2.3-.98,3.4-.98,1.39,0,2.32.37,2.78,1.11.46.73.7,2.08.7,4.04v5.48h-1.25v-5.42c0-1.59-.15-2.68-.46-3.24-.31-.56-.96-.84-1.96-.84-.49,0-1,.07-1.53.22-.53.15-.95.3-1.24.45l-.44.21v8.63Z"/>
      <path class="cls-4" d="M476.25,74.97h-1.23v-10.42h1.23v.77c1.17-.65,2.3-.98,3.4-.98,1.39,0,2.31.37,2.78,1.11.46.73.7,2.08.7,4.04v5.48h-1.25v-5.42c0-1.59-.15-2.68-.46-3.24-.31-.56-.96-.84-1.96-.84-.48,0-1,.07-1.53.22-.54.15-.95.3-1.24.45l-.44.21v8.63Z"/>
      <path class="cls-4" d="M485.89,69.74c0-1.96.33-3.35.99-4.17.66-.82,1.79-1.23,3.38-1.23s2.71.41,3.37,1.23c.66.82.99,2.21.99,4.17s-.3,3.35-.91,4.19c-.6.83-1.76,1.25-3.45,1.25s-2.85-.42-3.46-1.25c-.61-.83-.92-2.23-.92-4.19ZM487.19,69.7c0,1.65.19,2.79.57,3.42.38.63,1.21.95,2.5.95s2.12-.32,2.51-.96c.39-.64.58-1.78.58-3.41s-.22-2.75-.65-3.35c-.44-.6-1.25-.91-2.43-.91s-1.99.3-2.43.9c-.44.6-.66,1.72-.66,3.36Z"/>
      <path class="cls-4" d="M496.33,64.55h1.38l2.6,9.33h.83l2.71-9.33h1.29l-3.04,10.42h-2.73l-3.04-10.42Z"/>
      <path class="cls-4" d="M514.48,67.65v5.58c.06.51.51.82,1.35.92l-.06,1c-1.07,0-1.85-.28-2.35-.83-1.3.57-2.61.85-3.91.85-.93,0-1.64-.27-2.13-.8-.48-.53-.72-1.3-.72-2.29s.24-1.73.74-2.21c.49-.48,1.27-.77,2.32-.88l3.54-.35v-.98c0-.78-.17-1.34-.51-1.68-.34-.34-.79-.51-1.36-.51-.89,0-2.04.08-3.46.25l-.64.06-.06-1c1.53-.29,2.87-.44,4.01-.44s1.98.27,2.49.81c.51.54.77,1.38.77,2.5ZM507.94,72.01c0,1.4.58,2.1,1.73,2.1.5,0,1.05-.06,1.65-.18.6-.12,1.07-.24,1.42-.37l.52-.19v-3.77l-3.4.35c-.68.06-1.17.25-1.47.58-.3.33-.45.82-.45,1.46Z"/>
      <path class="cls-4" d="M521.79,64.34c.63,0,1.37.07,2.23.21l.48.06-.06,1.06c-1.1-.14-1.91-.21-2.44-.21-1.24,0-2.09.3-2.54.91-.46.6-.69,1.72-.69,3.33s.21,2.75.63,3.39c.42.64,1.29.96,2.61.96l2.48-.19.04,1.06c-1.24.17-2.15.25-2.75.25-1.65,0-2.78-.41-3.38-1.23-.61-.82-.91-2.23-.91-4.23s.33-3.39.99-4.19c.66-.79,1.77-1.19,3.32-1.19Z"/>
      <path class="cls-4" d="M527.15,61.94v-1.56h1.23v1.56h-1.23ZM527.15,74.97v-10.42h1.23v10.42h-1.23Z"/>
      <path class="cls-4" d="M535.64,64.34c1.59,0,2.71.41,3.37,1.23.66.82.99,2.21.99,4.17s-.3,3.35-.9,4.19c-.61.83-1.76,1.25-3.45,1.25s-2.85-.42-3.46-1.25c-.61-.83-.92-2.23-.92-4.19s.33-3.35.99-4.17c.66-.82,1.79-1.23,3.38-1.23ZM535.64,74.07c1.28,0,2.12-.32,2.51-.96.39-.64.58-1.78.58-3.41s-.22-2.75-.66-3.35c-.44-.6-1.25-.91-2.43-.91s-1.99.3-2.43.9c-.44.6-.66,1.72-.66,3.36s.19,2.79.57,3.42c.38.63,1.22.95,2.5.95ZM533.54,61.63l4.31-2.02.46,1.08-4.38,1.81-.39-.87Z"/>
      <path class="cls-4" d="M374.08,100.27v-14.48h8.69v1.17h-7.4v5.38h6.15v1.15h-6.15v5.65h7.4v1.14h-8.69Z"/>
      <path class="cls-4" d="M386.76,100.27h-1.23v-10.42h1.23v.77c1.05-.65,2.18-.98,3.37-.98s2.04.37,2.54,1.1c.5-.31,1.11-.57,1.82-.78s1.36-.32,1.93-.32c1.39,0,2.32.37,2.78,1.09.47.73.7,2.08.7,4.06v5.48h-1.23v-5.42c0-1.59-.15-2.68-.45-3.24-.3-.56-.95-.84-1.95-.84-.5,0-1.01.07-1.54.22-.53.15-.93.3-1.21.45l-.42.21c.21.53.31,1.6.31,3.21v5.42h-1.25v-5.38c0-1.62-.15-2.72-.45-3.28-.3-.56-.94-.84-1.93-.84-.49,0-.98.07-1.49.22-.5.15-.89.3-1.16.45l-.39.21v8.63Z"/>
      <path class="cls-4" d="M403.14,104.95v-15.11h1.23v.79c1.08-.67,2.23-1,3.43-1s2.1.42,2.69,1.27c.59.85.88,2.23.88,4.14s-.35,3.29-1.04,4.15c-.7.85-1.85,1.28-3.46,1.28-.86,0-1.69-.09-2.5-.27v4.75h-1.23ZM407.54,90.76c-.46,0-.95.08-1.48.23-.53.15-.94.31-1.23.48l-.46.23v7.42c.94.17,1.76.25,2.46.25,1.19,0,2.03-.34,2.52-1.01.49-.67.73-1.78.73-3.33s-.21-2.65-.64-3.29c-.43-.65-1.06-.97-1.91-.97Z"/>
      <path class="cls-4" d="M414.24,100.27v-10.42h1.23v1.5c.51-.36,1.14-.71,1.89-1.04.74-.33,1.43-.56,2.05-.67v1.25c-.6.13-1.22.32-1.87.57-.65.26-1.16.48-1.52.68l-.54.31v7.81h-1.23Z"/>
      <path class="cls-4" d="M428.14,99.22l.63-.06.04,1.02c-1.57.19-2.89.29-3.98.29-1.5-.01-2.55-.46-3.14-1.33-.6-.87-.9-2.22-.9-4.04,0-3.64,1.43-5.46,4.29-5.46,1.38,0,2.4.39,3.08,1.18.68.79,1.02,2.04,1.02,3.76l-.04,1h-7.08c0,1.28.22,2.23.66,2.84.44.62,1.19.93,2.25.93s2.12-.04,3.18-.13ZM422.06,94.54h5.88c0-1.38-.23-2.35-.68-2.94-.45-.58-1.17-.87-2.16-.87s-1.75.3-2.26.91c-.51.6-.77,1.57-.77,2.91Z"/>
      <path class="cls-4" d="M435.1,90.78c-1.64,0-2.46.59-2.46,1.77,0,.54.18.92.54,1.15.36.22,1.18.44,2.45.66,1.27.21,2.17.51,2.69.88.52.38.78,1.1.78,2.16s-.34,1.84-1.02,2.33c-.68.5-1.68.74-3,.74-.76,0-1.75-.1-2.96-.29l-.6-.08.08-1.1c1.56.24,2.75.35,3.58.35s1.48-.15,1.95-.44c.46-.29.7-.78.7-1.48s-.19-1.16-.57-1.39c-.38-.23-1.2-.44-2.46-.63-1.25-.19-2.14-.47-2.66-.83-.52-.36-.77-1.04-.77-2.04s.35-1.73,1.06-2.19c.71-.46,1.58-.69,2.63-.69.83,0,1.88.09,3.12.27l.56.08-.04,1.1c-1.48-.22-2.69-.33-3.6-.33Z"/>
      <path class="cls-4" d="M449,92.95v5.58c.06.51.51.82,1.35.92l-.06,1c-1.07,0-1.85-.28-2.35-.83-1.31.57-2.61.85-3.92.85-.93,0-1.64-.27-2.13-.8-.49-.53-.72-1.3-.72-2.29s.24-1.73.74-2.21c.49-.48,1.27-.77,2.32-.88l3.54-.35v-.98c0-.78-.17-1.34-.51-1.68-.34-.34-.79-.51-1.36-.51-.89,0-2.04.08-3.46.25l-.64.06-.06-1c1.53-.29,2.87-.44,4.01-.44s1.98.27,2.49.81c.51.54.77,1.37.77,2.5ZM442.46,97.31c0,1.4.58,2.1,1.73,2.1.5,0,1.05-.06,1.64-.18.6-.12,1.07-.24,1.42-.37l.52-.19v-3.77l-3.4.35c-.68.06-1.17.25-1.47.58-.3.33-.45.82-.45,1.46Z"/>
      <path class="cls-4" d="M452.43,100.27v-10.42h1.23v1.5c.51-.36,1.14-.71,1.89-1.04.74-.33,1.43-.56,2.05-.67v1.25c-.6.13-1.22.32-1.88.57-.65.26-1.16.48-1.52.68l-.54.31v7.81h-1.23Z"/>
      <path class="cls-4" d="M459.7,87.24v-1.56h1.23v1.56h-1.23ZM459.7,100.27v-10.42h1.23v10.42h-1.23Z"/>
      <path class="cls-4" d="M471.43,92.95v5.58c.06.51.51.82,1.35.92l-.06,1c-1.07,0-1.85-.28-2.35-.83-1.31.57-2.61.85-3.92.85-.93,0-1.64-.27-2.13-.8-.48-.53-.73-1.3-.73-2.29s.25-1.73.74-2.21c.49-.48,1.27-.77,2.32-.88l3.54-.35v-.98c0-.78-.17-1.34-.51-1.68-.34-.34-.8-.51-1.37-.51-.89,0-2.04.08-3.46.25l-.65.06-.06-1c1.52-.29,2.86-.44,4.01-.44s1.97.27,2.49.81c.51.54.77,1.37.77,2.5ZM464.89,97.31c0,1.4.58,2.1,1.73,2.1.5,0,1.05-.06,1.65-.18.6-.12,1.07-.24,1.42-.37l.52-.19v-3.77l-3.39.35c-.68.06-1.17.25-1.47.58-.3.33-.45.82-.45,1.46Z"/>
      <path class="cls-4" d="M475,100.27v-15.04h1.23v15.04h-1.23Z"/>
      <path class="cls-4" d="M381.62,110.52v15.05h-1.25v-.77c-1.1.65-2.21.98-3.33.98-.51,0-.96-.06-1.33-.17-.37-.12-.76-.35-1.14-.7-.8-.71-1.19-2.09-1.19-4.16s.33-3.54,1-4.45c.67-.9,1.79-1.35,3.38-1.35.61,0,1.49.09,2.62.27v-4.69h1.25ZM376.25,124.5c.25.1.59.15,1,.15s.88-.08,1.42-.23c.53-.15.96-.3,1.26-.44l.44-.23v-7.46c-1.11-.17-1.97-.25-2.58-.25-1.18,0-2,.36-2.45,1.08-.45.72-.68,1.84-.68,3.35,0,1.78.27,2.94.81,3.48.26.26.52.44.78.54Z"/>
      <path class="cls-4" d="M391.83,124.52l.62-.06.04,1.02c-1.57.19-2.89.29-3.98.29-1.5-.01-2.55-.46-3.14-1.33-.6-.87-.9-2.22-.9-4.04,0-3.64,1.43-5.46,4.29-5.46,1.38,0,2.4.39,3.09,1.18.68.78,1.02,2.04,1.02,3.76l-.04,1h-7.08c0,1.28.22,2.23.66,2.84.44.62,1.19.93,2.25.93s2.12-.04,3.18-.13ZM385.74,119.84h5.87c0-1.38-.23-2.35-.68-2.94-.45-.58-1.18-.87-2.17-.87s-1.75.3-2.26.91c-.51.6-.77,1.57-.77,2.91Z"/>
      <path class="cls-4" d="M400.56,125.57v-15.05h1.23v15.05h-1.23Z"/>
      <path class="cls-4" d="M412.14,124.52l.62-.06.04,1.02c-1.57.19-2.9.29-3.98.29-1.5-.01-2.55-.46-3.15-1.33-.6-.87-.9-2.22-.9-4.04,0-3.64,1.43-5.46,4.29-5.46,1.37,0,2.4.39,3.08,1.18.68.78,1.02,2.04,1.02,3.76l-.04,1h-7.08c0,1.28.22,2.23.66,2.84.44.62,1.19.93,2.25.93s2.12-.04,3.18-.13ZM406.06,119.84h5.88c0-1.38-.23-2.35-.68-2.94-.45-.58-1.18-.87-2.17-.87s-1.75.3-2.26.91c-.51.6-.77,1.57-.77,2.91Z"/>
      <path class="cls-4" d="M419.1,116.08c-1.64,0-2.46.59-2.46,1.77,0,.54.18.92.54,1.14.36.22,1.18.44,2.45.66,1.27.22,2.17.51,2.69.88.52.38.78,1.1.78,2.16s-.34,1.84-1.02,2.33c-.68.49-1.68.74-3,.74-.76,0-1.75-.1-2.96-.29l-.6-.08.08-1.1c1.56.24,2.75.35,3.58.35s1.48-.15,1.95-.44c.47-.29.7-.78.7-1.48s-.19-1.16-.57-1.39c-.38-.23-1.2-.44-2.46-.63-1.26-.19-2.14-.47-2.66-.83-.51-.36-.77-1.04-.77-2.04s.35-1.73,1.06-2.19c.71-.46,1.58-.69,2.63-.69.83,0,1.87.09,3.12.27l.56.08-.04,1.1c-1.49-.22-2.69-.33-3.6-.33Z"/>
      <path class="cls-4" d="M430.87,125.57v-14.48h1.29v14.48h-1.29Z"/>
      <path class="cls-4" d="M435.87,125.57v-15.05h1.23v15.05h-1.23Z"/>
      <path class="cls-4" d="M440.68,125.57v-15.05h1.23v15.05h-1.23Z"/>
      <path class="cls-4" d="M452.27,124.52l.62-.06.04,1.02c-1.57.19-2.9.29-3.98.29-1.5-.01-2.55-.46-3.15-1.33-.6-.87-.9-2.22-.9-4.04,0-3.64,1.43-5.46,4.29-5.46,1.37,0,2.4.39,3.08,1.18.68.78,1.02,2.04,1.02,3.76l-.04,1h-7.08c0,1.28.22,2.23.66,2.84.44.62,1.19.93,2.25.93s2.12-.04,3.18-.13ZM446.18,119.84h5.87c0-1.38-.22-2.35-.68-2.94-.45-.58-1.17-.87-2.17-.87s-1.75.3-2.26.91c-.51.6-.77,1.57-.77,2.91Z"/>
      <path class="cls-4" d="M459.22,116.08c-1.64,0-2.46.59-2.46,1.77,0,.54.18.92.54,1.14.36.22,1.18.44,2.45.66,1.27.22,2.17.51,2.69.88.52.38.78,1.1.78,2.16s-.34,1.84-1.02,2.33c-.68.49-1.68.74-3,.74-.76,0-1.75-.1-2.96-.29l-.6-.08.08-1.1c1.56.24,2.75.35,3.58.35s1.48-.15,1.95-.44c.47-.29.7-.78.7-1.48s-.19-1.16-.57-1.39c-.38-.23-1.2-.44-2.46-.63-1.26-.19-2.14-.47-2.66-.83-.51-.36-.77-1.04-.77-2.04s.36-1.73,1.07-2.19c.71-.46,1.58-.69,2.62-.69.83,0,1.88.09,3.13.27l.56.08-.04,1.1c-1.49-.22-2.69-.33-3.6-.33Z"/>
      <path class="cls-4" d="M471,111.09h5.15c2.85,0,4.27,1.21,4.27,3.64,0,1.71-.64,2.83-1.92,3.38,1.6.5,2.4,1.65,2.4,3.44,0,1.46-.38,2.49-1.13,3.1-.76.61-1.86.92-3.3.92h-5.46v-14.48ZM476.1,112.23h-3.81v5.4h4c.97,0,1.68-.23,2.13-.7.45-.47.68-1.16.68-2.08s-.25-1.58-.74-2c-.49-.42-1.25-.63-2.26-.63ZM476.31,118.75h-4.02v5.67h4.15c1.02,0,1.79-.22,2.33-.65.54-.43.81-1.19.81-2.27,0-1.84-1.09-2.75-3.27-2.75Z"/>
      <path class="cls-4" d="M490.98,118.25v5.58c.05.51.51.82,1.35.91l-.06,1c-1.07,0-1.86-.28-2.35-.83-1.31.57-2.61.85-3.91.85-.93,0-1.64-.27-2.12-.8-.49-.53-.73-1.3-.73-2.29s.25-1.73.74-2.21c.49-.48,1.27-.77,2.33-.88l3.54-.35v-.98c0-.78-.17-1.34-.51-1.68-.34-.34-.8-.51-1.36-.51-.89,0-2.04.08-3.46.25l-.65.06-.06-1c1.53-.29,2.86-.44,4.01-.44s1.98.27,2.49.81c.51.54.77,1.37.77,2.5ZM484.43,122.61c0,1.4.58,2.1,1.73,2.1.5,0,1.05-.06,1.64-.18.6-.12,1.07-.24,1.42-.37l.52-.19v-3.77l-3.39.35c-.68.06-1.17.25-1.47.58-.3.33-.45.82-.45,1.46Z"/>
      <path class="cls-4" d="M494.54,125.57v-15.05h1.23v15.05h-1.23Z"/>
      <path class="cls-4" d="M506.12,124.52l.63-.06.04,1.02c-1.57.19-2.89.29-3.98.29-1.5-.01-2.55-.46-3.15-1.33-.6-.87-.89-2.22-.89-4.04,0-3.64,1.43-5.46,4.29-5.46,1.37,0,2.4.39,3.08,1.18.68.78,1.02,2.04,1.02,3.76l-.04,1h-7.08c0,1.28.22,2.23.66,2.84.43.62,1.18.93,2.25.93s2.12-.04,3.18-.13ZM500.04,119.84h5.87c0-1.38-.23-2.35-.68-2.94-.45-.58-1.17-.87-2.16-.87s-1.75.3-2.26.91c-.51.6-.77,1.57-.77,2.91Z"/>
      <path class="cls-4" d="M517.1,118.25v5.58c.06.51.51.82,1.35.91l-.06,1c-1.07,0-1.85-.28-2.35-.83-1.31.57-2.61.85-3.92.85-.93,0-1.64-.27-2.12-.8-.49-.53-.73-1.3-.73-2.29s.25-1.73.74-2.21c.49-.48,1.27-.77,2.32-.88l3.54-.35v-.98c0-.78-.17-1.34-.51-1.68-.34-.34-.8-.51-1.37-.51-.89,0-2.04.08-3.45.25l-.65.06-.06-1c1.53-.29,2.86-.44,4.01-.44s1.97.27,2.49.81c.51.54.77,1.37.77,2.5ZM510.56,122.61c0,1.4.57,2.1,1.73,2.1.5,0,1.05-.06,1.64-.18.6-.12,1.07-.24,1.42-.37l.52-.19v-3.77l-3.4.35c-.68.06-1.17.25-1.47.58-.3.33-.45.82-.45,1.46Z"/>
      <path class="cls-4" d="M520.54,125.57v-10.42h1.23v1.5c.51-.36,1.14-.71,1.89-1.04.74-.33,1.43-.56,2.05-.66v1.25c-.6.13-1.22.32-1.88.57-.65.26-1.16.48-1.52.68l-.54.31v7.81h-1.23Z"/>
      <path class="cls-4" d="M530.96,116.08c-1.64,0-2.46.59-2.46,1.77,0,.54.18.92.54,1.14.36.22,1.18.44,2.45.66,1.27.22,2.17.51,2.69.88.52.38.78,1.1.78,2.16s-.34,1.84-1.02,2.33c-.68.49-1.68.74-3,.74-.77,0-1.75-.1-2.96-.29l-.61-.08.08-1.1c1.56.24,2.75.35,3.58.35s1.48-.15,1.95-.44c.46-.29.7-.78.7-1.48s-.19-1.16-.57-1.39c-.38-.23-1.2-.44-2.46-.63-1.26-.19-2.14-.47-2.66-.83-.51-.36-.77-1.04-.77-2.04s.36-1.73,1.07-2.19c.71-.46,1.58-.69,2.62-.69.83,0,1.88.09,3.13.27l.56.08-.04,1.1c-1.48-.22-2.69-.33-3.6-.33Z"/>
    </g>
    <g>
      <rect class="cls-3" x="305.25" y="47.07" width="8.82" height="8.96"/>
      <rect class="cls-7" x="305.25" y="60.24" width="8.82" height="32.92"/>
      <path class="cls-7" d="M346.94,47.07v46.1h-8.76v-1.38c-3.07,1.45-5.73,2.17-7.97,2.17-4.79,0-8.12-1.38-10.01-4.15-1.89-2.77-2.83-7.14-2.83-13.14s1.13-10.36,3.39-13.11c2.26-2.74,5.67-4.11,10.24-4.11,1.4,0,3.36.22,5.86.66l1.25.26v-13.3h8.82ZM337.19,85.27l.92-.2v-17.32c-2.41-.44-4.57-.66-6.45-.66-3.56,0-5.34,3.16-5.34,9.48,0,3.42.4,5.86,1.19,7.31.79,1.45,2.1,2.17,3.92,2.17s3.74-.26,5.76-.79Z"/>
      <rect class="cls-7" x="351.81" y="60.24" width="8.83" height="32.92"/>
      <polygon class="cls-7" points="351.93 47.08 357.61 47.08 357.61 50.4 360.92 50.4 360.92 56.08 351.93 56.08 351.93 47.08"/>
      <g>
        <rect class="cls-1" x="359.26" y="45.43" width="3.31" height="3.31"/>
        <rect class="cls-1" x="362.58" y="40.46" width="4.97" height="4.97"/>
        <rect class="cls-6" x="355.13" y="33.01" width="7.45" height="7.45"/>
      </g>
    </g>
  </g>
  <g>
    <g>
      <path class="cls-2" d="M38.2,68.32c0-5.51,2.74-8.16,7.25-8.16,2.21,0,4.14.95,5.23,2.46.12.16.16.33.16.49,0,.42-.33.74-.74.74-.21,0-.42-.07-.6-.3-.79-1.09-2.3-1.95-4.05-1.95-3.58,0-5.63,2.16-5.63,6.72,0,4.84,2.05,6.69,5.63,6.69,1.53,0,3.14-.6,4.05-1.91.16-.23.42-.3.6-.3.42,0,.74.33.74.74,0,.19-.05.3-.14.44-1.02,1.49-3.11,2.46-5.25,2.46-4.51,0-7.25-2.42-7.25-8.14Z"/>
      <path class="cls-2" d="M52.52,68.32c0-5.51,2.74-8.16,7.25-8.16s7.25,2.65,7.25,8.16-2.74,8.14-7.25,8.14-7.25-2.67-7.25-8.14ZM54.15,68.32c0,4.53,2.07,6.69,5.63,6.69s5.63-2.16,5.63-6.69-2.07-6.72-5.63-6.72-5.63,2.16-5.63,6.72Z"/>
      <path class="cls-2" d="M80.5,61.07v14.46c0,.44-.35.79-.79.79-.28,0-.49-.12-.65-.32l-8.18-12.35v11.9c0,.42-.35.77-.77.77s-.77-.35-.77-.77v-14.48c0-.42.35-.77.77-.77.28,0,.51.16.63.33l8.23,12.37v-11.93c0-.42.35-.77.77-.77s.77.35.77.77Z"/>
      <path class="cls-2" d="M88.31,61.6c-2.44,0-3.37,1.21-3.37,2.53,0,3.86,8.79,2.21,8.79,7.81,0,2.91-2,4.51-5.58,4.51-2.65,0-4.63-1.35-5.42-2.86-.09-.19-.12-.28-.12-.42,0-.42.33-.74.74-.74.28,0,.51.14.65.37.74,1.21,2.09,2.21,4.14,2.21,2.56,0,4-1.02,4-3.07,0-4.35-8.79-2.3-8.79-7.81,0-2.14,1.56-3.98,4.95-3.98,2.21,0,4,.93,4.97,2.4.09.14.14.28.14.44,0,.42-.33.74-.74.74-.21,0-.42-.07-.6-.3-.7-.86-1.81-1.84-3.77-1.84Z"/>
      <path class="cls-2" d="M97.06,76.13c-.44,0-.79-.35-.79-.79v-14.06c0-.44.35-.79.79-.79h7.46c.4,0,.72.33.72.72s-.33.72-.72.72h-6.67v5.6h5.11c.4,0,.72.33.72.72s-.33.72-.72.72h-5.11v5.72h6.93c.4,0,.72.33.72.72s-.33.72-.72.72h-7.72Z"/>
      <path class="cls-2" d="M115.92,74.64c.42,0,.74.33.74.74s-.33.74-.74.74h-7.16c-.44,0-.79-.35-.79-.79v-14.25c0-.44.35-.79.79-.79s.79.35.79.79v13.55h6.37Z"/>
      <path class="cls-2" d="M126.8,74.64c.42,0,.74.33.74.74s-.33.74-.74.74h-7.16c-.44,0-.79-.35-.79-.79v-14.25c0-.44.35-.79.79-.79s.79.35.79.79v13.55h6.37Z"/>
      <path class="cls-2" d="M130.52,76.13c-.44,0-.79-.35-.79-.79v-14.06c0-.44.35-.79.79-.79h7.46c.4,0,.72.33.72.72s-.33.72-.72.72h-6.67v5.6h5.11c.4,0,.72.33.72.72s-.33.72-.72.72h-5.11v5.72h6.93c.4,0,.72.33.72.72s-.33.72-.72.72h-7.72Z"/>
      <path class="cls-2" d="M143.01,75.53c0,.44-.35.79-.79.79s-.79-.35-.79-.79v-14.25c0-.44.35-.79.79-.79h4.63c2.58,0,4.44,1.95,4.44,4.44s-1.65,4.32-4.16,4.44l4.25,5.67c.12.14.16.33.16.49,0,.44-.35.79-.79.79-.23,0-.49-.09-.67-.37l-4.72-6.58h-2.35v6.16ZM143.01,67.93h3.88c1.63,0,2.79-1.33,2.79-3s-1.19-3-2.86-3h-3.81v6Z"/>
      <path class="cls-2" d="M155.36,75.53c0,.42-.35.79-.79.79s-.79-.37-.79-.79v-14.43c0-.42.35-.79.79-.79s.79.37.79.79v14.43Z"/>
      <path class="cls-2" d="M160.76,71.51l-1.7,4.25c-.12.3-.37.56-.77.56-.44,0-.79-.37-.79-.79,0-.09.02-.25.07-.35l5.67-14.34c.12-.28.33-.54.74-.54.4,0,.65.26.77.54l5.67,14.34c.05.12.07.28.07.35,0,.42-.33.79-.81.79-.4,0-.65-.23-.77-.53l-1.67-4.28h-6.49ZM163.99,62.95l-2.74,7.11h5.51l-2.77-7.11Z"/>
      <path class="cls-2" d="M39.83,100.85c-.44,0-.79-.35-.79-.79v-14.06c0-.44.35-.79.79-.79h7.46c.4,0,.72.33.72.72s-.33.72-.72.72h-6.67v5.6h5.11c.4,0,.72.33.72.72s-.33.72-.72.72h-5.11v5.72h6.93c.4,0,.72.33.72.72s-.33.72-.72.72h-7.72Z"/>
      <path class="cls-2" d="M56.89,97.87l-4.86-9.04v11.44c0,.42-.35.77-.77.77s-.77-.35-.77-.77v-14.48c0-.42.35-.77.77-.77.35,0,.58.21.7.44l5.63,10.53,5.65-10.53c.09-.16.28-.44.7-.44s.77.35.77.77v14.48c0,.42-.35.77-.77.77s-.77-.35-.77-.77v-11.44l-4.88,9.04c-.16.3-.42.44-.7.44-.23,0-.53-.12-.7-.44Z"/>
      <path class="cls-2" d="M69.66,100.25c0,.44-.35.79-.79.79s-.79-.35-.79-.79v-14.25c0-.44.35-.79.79-.79h4.63c2.49,0,4.44,1.44,4.44,4.53s-1.91,4.56-4.44,4.56h-3.84v5.95ZM69.66,92.85h3.6c1.88,0,3.07-1.09,3.07-3.12s-1.21-3.09-3.07-3.09h-3.6v6.21Z"/>
      <path class="cls-2" d="M81.97,100.25c0,.44-.35.79-.79.79s-.79-.35-.79-.79v-14.25c0-.44.35-.79.79-.79h4.63c2.58,0,4.44,1.95,4.44,4.44s-1.65,4.32-4.16,4.44l4.25,5.67c.12.14.16.33.16.49,0,.44-.35.79-.79.79-.23,0-.49-.09-.67-.37l-4.72-6.58h-2.35v6.16ZM81.97,92.64h3.88c1.63,0,2.79-1.33,2.79-3s-1.19-3-2.86-3h-3.81v6Z"/>
      <path class="cls-2" d="M93.52,100.85c-.44,0-.79-.35-.79-.79v-14.06c0-.44.35-.79.79-.79h7.46c.4,0,.72.33.72.72s-.33.72-.72.72h-6.67v5.6h5.11c.4,0,.72.33.72.72s-.33.72-.72.72h-5.11v5.72h6.93c.4,0,.72.33.72.72s-.33.72-.72.72h-7.72Z"/>
      <path class="cls-2" d="M109.11,86.32c-2.44,0-3.37,1.21-3.37,2.53,0,3.86,8.79,2.21,8.79,7.81,0,2.91-2,4.51-5.58,4.51-2.65,0-4.63-1.35-5.42-2.86-.09-.19-.12-.28-.12-.42,0-.42.33-.74.74-.74.28,0,.51.14.65.37.74,1.21,2.09,2.21,4.14,2.21,2.56,0,4-1.02,4-3.07,0-4.35-8.79-2.3-8.79-7.81,0-2.14,1.56-3.98,4.95-3.98,2.21,0,4,.93,4.97,2.39.09.14.14.28.14.44,0,.42-.33.74-.74.74-.21,0-.42-.07-.6-.3-.7-.86-1.81-1.84-3.77-1.84Z"/>
      <path class="cls-2" d="M119.08,96.22l-1.7,4.25c-.12.3-.37.56-.77.56-.44,0-.79-.37-.79-.79,0-.09.02-.25.07-.35l5.67-14.34c.12-.28.33-.54.74-.54.4,0,.65.26.77.54l5.67,14.34c.05.12.07.28.07.35,0,.42-.33.79-.81.79-.4,0-.65-.23-.77-.54l-1.67-4.28h-6.49ZM122.31,87.67l-2.74,7.11h5.51l-2.77-7.11Z"/>
      <path class="cls-2" d="M130.43,104.48c-.07.07-.14.14-.3.14-.19,0-.35-.14-.35-.35,0-.07.02-.14.07-.21.56-.77.86-1.3.86-2.12,0-.88-.84-1.05-.84-2,0-.77.42-1.12,1.09-1.12.72,0,1.14.42,1.14,1.49,0,1.6-.65,3.09-1.67,4.16Z"/>
      <path class="cls-2" d="M137.8,93.04c0-5.51,2.74-8.16,7.25-8.16s7.25,2.65,7.25,8.16-2.74,8.14-7.25,8.14-7.25-2.67-7.25-8.14ZM139.43,93.04c0,4.53,2.07,6.69,5.63,6.69s5.63-2.16,5.63-6.69-2.07-6.72-5.63-6.72-5.63,2.16-5.63,6.72Z"/>
      <path class="cls-2" d="M154.01,93.04c0-5.51,2.74-8.16,7.25-8.16,2.21,0,4.14.95,5.23,2.46.12.16.16.33.16.49,0,.42-.33.74-.74.74-.21,0-.42-.07-.6-.3-.79-1.09-2.3-1.95-4.05-1.95-3.58,0-5.63,2.16-5.63,6.72,0,4.84,2.05,6.69,5.63,6.69,1.53,0,3.14-.6,4.05-1.91.16-.23.42-.3.6-.3.42,0,.74.33.74.74,0,.19-.05.3-.14.44-1.02,1.49-3.11,2.46-5.25,2.46-4.51,0-7.25-2.42-7.25-8.14Z"/>
      <path class="cls-2" d="M169.17,96.08v-10.27c0-.44.35-.79.79-.79s.79.35.79.79v10.27c0,1.84.67,3.6,3.88,3.6s3.86-1.77,3.86-3.6v-10.27c0-.44.35-.79.79-.79s.79.35.79.79v10.27c0,2.56-1.05,5.09-5.44,5.09s-5.46-2.53-5.46-5.09Z"/>
      <path class="cls-2" d="M184.92,100.25c0,.44-.35.79-.79.79s-.79-.35-.79-.79v-14.25c0-.44.35-.79.79-.79h4.63c2.49,0,4.44,1.44,4.44,4.53s-1.91,4.56-4.44,4.56h-3.84v5.95ZM184.92,92.85h3.6c1.88,0,3.07-1.09,3.07-3.12s-1.21-3.09-3.07-3.09h-3.6v6.21Z"/>
      <path class="cls-2" d="M196.04,96.22l-1.7,4.25c-.12.3-.37.56-.77.56-.44,0-.79-.37-.79-.79,0-.09.02-.25.07-.35l5.67-14.34c.12-.28.33-.54.74-.54.4,0,.65.26.77.54l5.67,14.34c.05.12.07.28.07.35,0,.42-.33.79-.81.79-.4,0-.65-.23-.77-.54l-1.67-4.28h-6.49ZM199.27,87.67l-2.74,7.11h5.51l-2.77-7.11Z"/>
      <path class="cls-2" d="M206.39,93.04c0-5.51,2.74-8.16,7.25-8.16,2.21,0,4.14.95,5.23,2.46.12.16.16.33.16.49,0,.42-.33.74-.74.74-.21,0-.42-.07-.6-.3-.79-1.09-2.3-1.95-4.05-1.95-3.58,0-5.63,2.16-5.63,6.72,0,4.84,2.05,6.69,5.63,6.69,1.53,0,3.14-.6,4.05-1.91.16-.23.42-.3.6-.3.42,0,.74.33.74.74,0,.19-.05.3-.14.44-1.02,1.49-3.11,2.46-5.25,2.46-4.51,0-7.25-2.42-7.25-8.14Z"/>
      <path class="cls-2" d="M223.13,100.25c0,.42-.35.79-.79.79s-.79-.37-.79-.79v-14.43c0-.42.35-.79.79-.79s.79.37.79.79v14.43Z"/>
      <path class="cls-2" d="M232.92,101.18c-4.51,0-7.25-2.67-7.25-8.14s2.74-8.16,7.25-8.16,7.25,2.65,7.25,8.16-2.74,8.14-7.25,8.14ZM232.92,86.32c-3.56,0-5.63,2.16-5.63,6.72s2.07,6.69,5.63,6.69,5.63-2.16,5.63-6.69-2.07-6.72-5.63-6.72ZM231.64,84.02c.28.23.49.16.7-.05l2.25-2.28c.25-.26.28-.56-.07-.88-.37-.33-.7-.23-.88,0l-2.07,2.51c-.16.21-.21.46.07.7Z"/>
      <path class="cls-2" d="M40.62,124.96c0,.42-.35.79-.79.79s-.79-.37-.79-.79v-14.43c0-.42.35-.79.79-.79s.79.37.79.79v14.43Z"/>
      <path class="cls-2" d="M49.96,125.57c-.44,0-.79-.35-.79-.79v-14.06c0-.44.35-.79.79-.79h7.46c.4,0,.72.33.72.72s-.33.72-.72.72h-6.67v5.6h5.11c.4,0,.72.33.72.72s-.33.72-.72.72h-5.11v5.72h6.93c.4,0,.72.33.72.72s-.33.72-.72.72h-7.72Z"/>
      <path class="cls-2" d="M71.8,110.5v14.46c0,.44-.35.79-.79.79-.28,0-.49-.12-.65-.33l-8.18-12.35v11.9c0,.42-.35.77-.77.77s-.77-.35-.77-.77v-14.48c0-.42.35-.77.77-.77.28,0,.51.16.63.33l8.23,12.37v-11.93c0-.42.35-.77.77-.77s.77.35.77.77Z"/>
      <path class="cls-2" d="M75.73,125.57c-.44,0-.79-.35-.79-.79v-14.06c0-.44.35-.79.79-.79h7.46c.4,0,.72.33.72.72s-.33.72-.72.72h-6.67v5.6h5.11c.4,0,.72.33.72.72s-.33.72-.72.72h-5.11v5.72h6.93c.4,0,.72.33.72.72s-.33.72-.72.72h-7.72Z"/>
      <path class="cls-2" d="M88.22,124.96c0,.44-.35.79-.79.79s-.79-.35-.79-.79v-14.25c0-.44.35-.79.79-.79h4.63c2.58,0,4.44,1.95,4.44,4.44s-1.65,4.32-4.16,4.44l4.25,5.67c.12.14.16.33.16.49,0,.44-.35.79-.79.79-.23,0-.49-.09-.67-.37l-4.72-6.58h-2.35v6.16ZM88.22,117.36h3.88c1.63,0,2.79-1.33,2.79-3s-1.19-3-2.86-3h-3.81v6Z"/>
      <path class="cls-2" d="M109.73,122.59v-3.37h-3.88c-.4,0-.72-.33-.72-.72s.32-.72.72-.72h4.7c.37,0,.72.33.72.72v4.07c0,.28-.09.51-.3.77-1.12,1.3-2.74,2.56-5.56,2.56-4.51,0-7.25-2.42-7.25-8.14s2.74-8.16,7.25-8.16c2.21,0,4.14.95,5.23,2.46.12.16.16.33.16.49,0,.42-.33.74-.74.74-.21,0-.42-.07-.6-.3-.79-1.09-2.28-1.95-4.05-1.95-3.58,0-5.63,2.16-5.63,6.72,0,4.84,2.05,6.69,5.63,6.69,2.16,0,3.56-.91,4.32-1.86Z"/>
      <path class="cls-2" d="M115.64,124.96c0,.42-.35.79-.79.79s-.79-.37-.79-.79v-14.43c0-.42.35-.79.79-.79s.79.37.79.79v14.43Z"/>
      <path class="cls-2" d="M121.03,120.94l-1.7,4.25c-.12.3-.37.56-.77.56-.44,0-.79-.37-.79-.79,0-.09.02-.25.07-.35l5.67-14.34c.12-.28.33-.54.74-.54.4,0,.65.26.77.54l5.67,14.34c.05.12.07.28.07.35,0,.42-.33.79-.81.79-.4,0-.65-.23-.77-.54l-1.67-4.28h-6.49ZM124.27,112.39l-2.74,7.11h5.51l-2.77-7.11Z"/>
    </g>
    <g>
      <path class="cls-4" d="M18.5,124.45h-3.79v-14.5h3.9c.48,0,.86-.37.86-.85s-.38-.85-.86-.85h-9.65c-.49,0-.86.37-.86.85s.38.85.86.85h3.78v14.5h-3.89c-.48,0-.86.37-.86.84s.37.86.86.86h9.65c.49,0,.86-.38.86-.86s-.38-.84-.86-.84"/>
      <path class="cls-4" d="M19.58,72.86v-3.84h-4.48c-.46,0-.83-.37-.83-.81s.38-.83.83-.83h5.42c.43,0,.84.38.84.83v4.62c0,.32-.11.58-.35.87-1.29,1.48-3.17,2.91-6.41,2.91-5.21,0-8.38-2.75-8.38-9.26s3.17-9.28,8.38-9.28c2.55,0,4.77,1.08,6.03,2.8.14.19.19.37.19.56,0,.48-.38.85-.86.85-.24,0-.48-.08-.7-.34-.91-1.24-2.63-2.22-4.66-2.22-4.13,0-6.5,2.46-6.5,7.65,0,5.5,2.36,7.62,6.5,7.62,2.49,0,4.1-1.03,4.98-2.11Z"/>
      <path class="cls-4" d="M5.36,92.33c0-6.27,3.16-9.28,8.37-9.28s8.37,3.01,8.37,9.28-3.17,9.26-8.37,9.26-8.37-3.04-8.37-9.26ZM7.24,92.33c0,5.16,2.38,7.62,6.49,7.62s6.49-2.46,6.49-7.62-2.39-7.64-6.49-7.64-6.49,2.46-6.49,7.64Z"/>
      <path class="cls-4" d="M9.26,151.18c-.48,0-.91-.4-.91-.9v-16c0-.5.43-.9.91-.9h4.56c3.78,0,5.47,1.85,5.47,4.71,0,1.75-1.1,3.17-2.6,3.6,1.93.48,3.44,1.85,3.44,4.42,0,3.07-1.96,5.08-5.5,5.08h-5.37ZM10.17,141.16h3.62c2.39,0,3.65-1.22,3.65-3.07s-1.15-3.06-3.65-3.06h-3.62v6.13ZM10.17,149.54h4.43c2.44,0,3.68-1.3,3.68-3.44s-1.39-3.41-3.68-3.41h-4.43v6.85Z"/>
    </g>
    <g>
      <path class="cls-5" d="M20.73,159.48c.3-.32.68-.33.98-.17.41.21.57.7.37,1.13-.05.09-.13.19-.25.31l-15.05,15.07c-.3.32-.68.33-.98.17-.41-.21-.57-.69-.37-1.12.05-.09.13-.19.24-.32l15.05-15.07Z"/>
      <g>
        <path class="cls-5" d="M0,27.64c0,2.75.82,5.31,2.2,7.45.5.78,1.09,1.5,1.73,2.15V7.48L0,3.55v24.09Z"/>
        <polygon class="cls-5" points="3.93 0 .06 0 3.93 3.87 3.93 0"/>
        <polygon class="cls-5" points="11.79 0 7.86 0 7.86 7.8 11.79 11.72 11.79 0"/>
        <path class="cls-5" d="M7.86,40.06c1.22.59,2.54.99,3.93,1.19V15.34l-3.93-3.92v28.65Z"/>
        <polygon class="cls-5" points="19.64 0 15.71 0 15.71 15.65 19.64 19.58 19.64 0"/>
        <path class="cls-5" d="M15.71,41.25c1.39-.2,2.71-.6,3.93-1.19v-16.87l-3.93-3.93v21.99Z"/>
        <polygon class="cls-5" points="27.5 0 23.57 0 23.57 23.51 27.5 27.43 27.5 0"/>
        <path class="cls-5" d="M23.57,37.25c.65-.66,1.23-1.38,1.73-2.16.86-1.33,1.46-2.82,1.83-4.41l-3.56-3.56v10.13Z"/>
      </g>
    </g>
  </g>
</svg>