<svg id="Capa_1" data-name="Capa 1" xmlns="http://www.w3.org/2000/svg" viewBox="0 0 166.51 82.48"><defs><style>.cls-1{fill:#737477;}.cls-2{fill:#302e2b;}.cls-3{fill:#f1d028;}.cls-4{fill:#975396;}.cls-5{fill:#af0532;}.cls-6{fill:#62147c;}.cls-7{fill:#d07437;}.cls-8{fill:#401c6d;}</style></defs><rect class="cls-1" x="67.49" y="15.24" width="8.84" height="31.03"/><rect class="cls-1" x="67.49" width="8.84" height="8.84"/><path class="cls-2" d="M112.77,82.13a2.12,2.12,0,0,0-2-1.09c-1.14,0-2.25.57-2.25,1.84s1.15,1.5,1.56,1.6l.84.2c.64.15,1.16.36,1.16,1s-.73,1-1.44,1a1.84,1.84,0,0,1-1.6-.91l-.74.51a2.65,2.65,0,0,0,2.34,1.18c1.19,0,2.37-.54,2.37-1.87a1.74,1.74,0,0,0-1.48-1.67l-.87-.21c-.8-.18-1.2-.39-1.2-1s.66-.91,1.26-.91a1.43,1.43,0,0,1,1.32.82Zm-8.24,5.17h.86V83.86a1.91,1.91,0,0,1,1.89-2,1.37,1.37,0,0,1,.49.07l.17-.85a2.35,2.35,0,0,0-.63-.08,2,2,0,0,0-2,1.29h0V81.2h-.84c0,.88,0,1.35,0,1.9Zm-2.94-3v.44a1.79,1.79,0,0,1-1.86,2c-.69,0-1.43-.31-1.43-1.12,0-1.23,2-1.29,2.84-1.29Zm-.43-.7c-1.47,0-3.8.13-3.8,2.11a1.88,1.88,0,0,0,2.1,1.78,2.28,2.28,0,0,0,2.15-1.14h0a5.37,5.37,0,0,0,.08,1h.83a10.27,10.27,0,0,1-.11-1.37V83.2A2,2,0,0,0,100.22,81a3.46,3.46,0,0,0-2.58.89l.52.61a2.69,2.69,0,0,1,1.86-.72,1.38,1.38,0,0,1,1.57,1.58v.16Zm-10.11.22a2.15,2.15,0,0,1,2.14-2,1.84,1.84,0,0,1,2,2Zm5.06.7v-.39a2.86,2.86,0,0,0-2.92-3,3.21,3.21,0,0,0,.08,6.41,3.2,3.2,0,0,0,2.62-1.29l-.67-.55A2.27,2.27,0,0,1,91,84.48Zm-7.76-7H87.5V87.3h.85Zm-3.9,6.82v.44a1.79,1.79,0,0,1-1.86,2c-.69,0-1.43-.31-1.43-1.12,0-1.23,2-1.29,2.84-1.29Zm-.43-.7c-1.46,0-3.8.13-3.8,2.11a1.88,1.88,0,0,0,2.1,1.78,2.28,2.28,0,0,0,2.15-1.14h0a5.37,5.37,0,0,0,.08,1h.83a10.43,10.43,0,0,1-.1-1.37V83.2A2,2,0,0,0,83.08,81a3.46,3.46,0,0,0-2.58.89l.52.61a2.69,2.69,0,0,1,1.86-.72,1.38,1.38,0,0,1,1.57,1.58v.16Zm-10.44-.67h1.91c1.5,0,2.31.59,2.31,1.8s-1.07,1.75-2.43,1.75H73.58Zm0-4h1.79c1.78,0,2,1.18,2,1.56a1.65,1.65,0,0,1-1.87,1.62H73.58Zm-.94,8.37h2.81c3,0,3.36-2,3.36-2.56a2.13,2.13,0,0,0-2.08-2.3v0a2,2,0,0,0,1.63-2c0-1.75-1.45-2.32-3-2.32H72.64Zm-5.49-5.17a2.11,2.11,0,0,0-2-1.09c-1.15,0-2.26.57-2.26,1.84s1.15,1.5,1.57,1.6l.83.2c.64.15,1.16.36,1.16,1s-.73,1-1.43,1a1.86,1.86,0,0,1-1.61-.91l-.74.51A2.65,2.65,0,0,0,65,87.45c1.18,0,2.37-.54,2.37-1.87a1.75,1.75,0,0,0-1.49-1.67L65,83.7c-.8-.18-1.2-.39-1.2-1s.67-.91,1.27-.91a1.43,1.43,0,0,1,1.31.82ZM56.53,83.78a2.14,2.14,0,0,1,2.14-2,1.85,1.85,0,0,1,2,2Zm5,.7v-.39a2.85,2.85,0,0,0-2.91-3,3.21,3.21,0,0,0,.07,6.41,3.17,3.17,0,0,0,2.62-1.29l-.66-.55a2.28,2.28,0,0,1-4.2-1.13Zm-7.75-7H53V87.3h.86Zm-3.13,0h-.86V87.3h.86Zm-3.24.63h-.94V87.3h.94ZM41,82.13A2.11,2.11,0,0,0,39,81c-1.15,0-2.26.57-2.26,1.84s1.15,1.5,1.57,1.6l.83.2c.64.15,1.16.36,1.16,1s-.73,1-1.43,1a1.83,1.83,0,0,1-1.6-.91l-.75.51a2.66,2.66,0,0,0,2.35,1.18c1.18,0,2.37-.54,2.37-1.87a1.75,1.75,0,0,0-1.48-1.67l-.88-.21c-.79-.18-1.2-.39-1.2-1s.67-.91,1.27-.91a1.43,1.43,0,0,1,1.31.82ZM30.41,83.78a2.15,2.15,0,0,1,2.14-2,1.84,1.84,0,0,1,2,2Zm5.06.7v-.39a2.86,2.86,0,0,0-2.92-3,3.21,3.21,0,0,0,.07,6.41,3.17,3.17,0,0,0,2.62-1.29l-.66-.55a2.28,2.28,0,0,1-4.2-1.13Zm-7.76-7h-.86V87.3h.86Zm-11.3,6.34a2.15,2.15,0,0,1,2.14-2,1.84,1.84,0,0,1,2,2Zm5.06.7v-.39a2.86,2.86,0,0,0-2.92-3,3.21,3.21,0,0,0,.08,6.41,3.2,3.2,0,0,0,2.62-1.29l-.67-.55a2.28,2.28,0,0,1-4.2-1.13ZM8.34,84.25a2.27,2.27,0,0,1,2.31-2.43,2.43,2.43,0,1,1,0,4.85,2.26,2.26,0,0,1-2.31-2.42m5.57-6.81h-.86v4.77h0A2.91,2.91,0,0,0,10.65,81a3.21,3.21,0,1,0,0,6.41A2.91,2.91,0,0,0,13,86.28h0v1h.86Z" transform="translate(-5.7 -4.97)"/><path class="cls-2" d="M162.18,66.93a2.11,2.11,0,0,0-2-1.09c-1.14,0-2.25.57-2.25,1.83s1.14,1.5,1.56,1.61l.84.19c.64.16,1.16.37,1.16,1s-.73,1-1.44,1a1.85,1.85,0,0,1-1.6-.92l-.74.51A2.66,2.66,0,0,0,160,72.25c1.19,0,2.37-.55,2.37-1.88a1.75,1.75,0,0,0-1.48-1.67l-.87-.21c-.8-.18-1.2-.39-1.2-1s.66-.91,1.26-.91a1.41,1.41,0,0,1,1.32.82Zm-6.08-4.69h-.86v9.85h.86Zm-3.91,6.81v.45a1.78,1.78,0,0,1-1.85,2c-.69,0-1.43-.32-1.43-1.13,0-1.22,2-1.29,2.84-1.29Zm-.43-.7c-1.46,0-3.79.13-3.79,2.11a1.88,1.88,0,0,0,2.1,1.79,2.28,2.28,0,0,0,2.15-1.15h0a6.32,6.32,0,0,0,.07,1h.84a8.83,8.83,0,0,1-.11-1.37V68a2,2,0,0,0-2.23-2.16,3.51,3.51,0,0,0-2.58.88l.52.61a2.73,2.73,0,0,1,1.87-.71,1.38,1.38,0,0,1,1.56,1.57v.16Zm-4.61-1.46a3,3,0,0,0-2.23-1,3.21,3.21,0,1,0,0,6.41,3,3,0,0,0,2.23-1.06l-.71-.53a1.82,1.82,0,0,1-1.52.81,2.43,2.43,0,0,1,0-4.85,1.81,1.81,0,0,1,1.52.8ZM139.5,69a2.3,2.3,0,1,1-2.31-2.42A2.27,2.27,0,0,1,139.5,69m.94,0a3.24,3.24,0,1,0-3.25,3.21A3.12,3.12,0,0,0,140.44,69M129,62.86h-.94v9.23h5.24v-.86H129Zm-6.43,4.07a2.09,2.09,0,0,0-2-1.09c-1.15,0-2.26.57-2.26,1.83s1.15,1.5,1.57,1.61l.83.19c.64.16,1.16.37,1.16,1s-.73,1-1.43,1a1.86,1.86,0,0,1-1.61-.92l-.74.51a2.66,2.66,0,0,0,2.35,1.19c1.18,0,2.37-.55,2.37-1.88a1.76,1.76,0,0,0-1.49-1.67l-.87-.21c-.8-.18-1.2-.39-1.2-1s.67-.91,1.27-.91a1.41,1.41,0,0,1,1.31.82ZM117.41,66h-1.76V64.27h-.86V66H113.5v.78h1.29v3.85a1.42,1.42,0,0,0,1.51,1.63,3,3,0,0,0,1.16-.22l0-.8a2,2,0,0,1-.89.24c-.53,0-.88-.19-.88-1.1v-3.6h1.76Zm-6,3.06v.45a1.78,1.78,0,0,1-1.85,2c-.69,0-1.44-.32-1.44-1.13,0-1.22,2-1.29,2.85-1.29Zm-.43-.7c-1.46,0-3.79.13-3.79,2.11a1.87,1.87,0,0,0,2.09,1.79,2.27,2.27,0,0,0,2.15-1.15h0a6.3,6.3,0,0,0,.08,1h.83a10.43,10.43,0,0,1-.1-1.37V68A2,2,0,0,0,110,65.84a3.5,3.5,0,0,0-2.58.88l.52.61a2.7,2.7,0,0,1,1.86-.71,1.38,1.38,0,0,1,1.57,1.57v.16ZM106.31,66h-1.75V64.27h-.86V66h-1.29v.78h1.29v3.85a1.42,1.42,0,0,0,1.51,1.63,3,3,0,0,0,1.16-.22l0-.8a2,2,0,0,1-.89.24c-.53,0-.88-.19-.88-1.1v-3.6h1.75Zm-5-2.35a.63.63,0,0,0-.62-.62.63.63,0,1,0,0,1.25.63.63,0,0,0,.62-.63M101.09,66h-.86v6.1h.86Zm-2.23,0H97.1V64.27h-.86V66H95v.78h1.29v3.85a1.42,1.42,0,0,0,1.51,1.63A2.93,2.93,0,0,0,98.91,72l0-.8a1.93,1.93,0,0,1-.88.24c-.54,0-.89-.19-.89-1.1v-3.6h1.76ZM88.4,66c0,.44.06,1,.06,1.34v4.76h.86V69c0-2.23,1.67-2.34,1.85-2.34,1.28,0,1.66.74,1.66,2.09v3.38h.86V68.22a2.09,2.09,0,0,0-2.3-2.38,2.42,2.42,0,0,0-2,1.13h0a8,8,0,0,0,0-1ZM82,67.72h4.47v-.86H82V63.72h4.78v-.86H81v9.23h5.88v-.86H82Zm-2.92-4.86H78l-.88,3.06H78ZM69.9,69a2.26,2.26,0,0,1,2.31-2.42,2.43,2.43,0,1,1,0,4.85A2.27,2.27,0,0,1,69.9,69m5.56-6.8h-.85V67h0a2.91,2.91,0,0,0-2.37-1.17,3.21,3.21,0,1,0,0,6.41,2.91,2.91,0,0,0,2.37-1.17h0v1h.85Zm-12.8.62H61.47l-1.31,1.88h.77ZM63.25,69A2.3,2.3,0,1,1,61,66.62,2.26,2.26,0,0,1,63.25,69m.94,0A3.24,3.24,0,1,0,61,72.25,3.11,3.11,0,0,0,64.19,69m-8-5.4a.63.63,0,1,0-.63.63.63.63,0,0,0,.63-.63M56,66h-.86v6.1H56Zm-2.19.9a2.92,2.92,0,0,0-2.22-1,3.21,3.21,0,1,0,0,6.41,2.93,2.93,0,0,0,2.22-1.06l-.7-.53a1.85,1.85,0,0,1-1.52.81,2.43,2.43,0,0,1,0-4.85,1.84,1.84,0,0,1,1.52.8Zm-8,2.16v.45a1.78,1.78,0,0,1-1.85,2c-.69,0-1.43-.32-1.43-1.13,0-1.22,2-1.29,2.84-1.29Zm-.43-.7c-1.46,0-3.79.13-3.79,2.11a1.88,1.88,0,0,0,2.1,1.79,2.28,2.28,0,0,0,2.15-1.15h0a6.32,6.32,0,0,0,.07,1h.84a8.83,8.83,0,0,1-.11-1.37V68a2,2,0,0,0-2.23-2.16,3.51,3.51,0,0,0-2.58.88l.52.61a2.73,2.73,0,0,1,1.87-.71,1.38,1.38,0,0,1,1.56,1.57v.16Zm-7.71,3.74h.86V68.65a1.91,1.91,0,0,1,1.89-2,1.37,1.37,0,0,1,.49.07l.17-.85a2.41,2.41,0,0,0-.64-.07,2,2,0,0,0-2,1.28h0V66h-.84c0,.89,0,1.36,0,1.9ZM30.9,68.57A2.15,2.15,0,0,1,33,66.62a1.84,1.84,0,0,1,2,1.95Zm5.06.7v-.39a2.85,2.85,0,0,0-2.92-3,3.21,3.21,0,0,0,.08,6.41A3.2,3.2,0,0,0,35.74,71l-.66-.55a2.32,2.32,0,0,1-2,1.06,2.29,2.29,0,0,1-2.24-2.2ZM22.84,69a2.25,2.25,0,0,1,2.3-2.42,2.43,2.43,0,1,1,0,4.85A2.26,2.26,0,0,1,22.84,69m5.56-6.8h-.86V67h0a2.93,2.93,0,0,0-2.38-1.17,3.21,3.21,0,1,0,0,6.41,2.93,2.93,0,0,0,2.38-1.17h0v1h.86ZM15.69,68.57a2.15,2.15,0,0,1,2.14-1.95,1.84,1.84,0,0,1,2,1.95Zm5.06.7v-.39a2.85,2.85,0,0,0-2.92-3,3.21,3.21,0,0,0,.08,6.41A3.2,3.2,0,0,0,20.53,71l-.66-.55a2.32,2.32,0,0,1-2,1.06,2.29,2.29,0,0,1-2.24-2.2ZM9.07,67.72h4.3v-.86H9.07V63.72H13.7v-.86H8.14v9.23h.93Z" transform="translate(-5.7 -4.97)"/><path class="cls-1" d="M108.75,36.75a6.07,6.07,0,1,1-6.06-6.06,6.07,6.07,0,0,1,6.06,6.06m8.82,0A14.85,14.85,0,0,0,96.62,23.17V5.36H87.8V51.63h8.82v-1.3a14.87,14.87,0,0,0,20.95-13.58" transform="translate(-5.7 -4.97)"/><rect class="cls-1" x="67.45" y="15.68" width="8.82" height="30.98"/><rect class="cls-1" x="67.45" y="0.46" width="8.82" height="8.82"/><path class="cls-1" d="M64.24,51.63h4.38V42.81H64.71a11.25,11.25,0,0,1-.09-1.46V5.43H55.8V41.35a11.92,11.92,0,0,0,1.73,6.95,7.82,7.82,0,0,0,6.71,3.33" transform="translate(-5.7 -4.97)"/><path class="cls-1" d="M41.14,31.16l-8,3.65a6,6,0,0,1,5.71-4.12,5.89,5.89,0,0,1,2.34.47m12.39,3.45s0-.09,0-.13a12.84,12.84,0,0,0-.4-1.76c0-.13-.07-.25-.11-.38a15.13,15.13,0,0,0-.65-1.74l-.06-.12a15.13,15.13,0,0,0-.84-1.54c-.06-.1-.12-.2-.19-.3a14.11,14.11,0,0,0-1.08-1.46l-.06-.09h0a14.87,14.87,0,0,0-26.2,9.65,13.71,13.71,0,0,0,.18,2.13h0a2.44,2.44,0,0,0,.06.26,13.76,13.76,0,0,0,.35,1.6c0,.1,0,.19.07.29a13,13,0,0,0,.66,1.74c.05.13.12.26.18.39.22.46.47.91.73,1.34.08.12.14.23.21.35a15.62,15.62,0,0,0,1.1,1.47l.05.07h0a14.85,14.85,0,0,0,21,1.66l-5.71-6.58-.12,0a6,6,0,0,1-6.17.9l8.08-3.66a.07.07,0,0,0,0,0Z" transform="translate(-5.7 -4.97)"/><path class="cls-1" d="M16.88,32.28h4.63V23.84H16.88V15.72A9.48,9.48,0,0,1,17,14.26h4.54V5.43h-5A7.84,7.84,0,0,0,9.78,8.77a11.88,11.88,0,0,0-1.73,7v8.12H5.7v8.44H8.05V51.63h8.83Z" transform="translate(-5.7 -4.97)"/><path class="cls-3" d="M147.2,39.48a14.91,14.91,0,1,1,14.9-14.9,14.92,14.92,0,0,1-14.9,14.9" transform="translate(-5.7 -4.97)"/><path class="cls-4" d="M136.26,39.42a6.07,6.07,0,1,0,6.07,6.07,6.07,6.07,0,0,0-6.07-6.07" transform="translate(-5.7 -4.97)"/><path class="cls-5" d="M163.43,22.86a8.79,8.79,0,1,0-8.78-8.78,8.78,8.78,0,0,0,8.78,8.78" transform="translate(-5.7 -4.97)"/><path class="cls-6" d="M131,43.86a8.78,8.78,0,1,0-8.78-8.78A8.79,8.79,0,0,0,131,43.86" transform="translate(-5.7 -4.97)"/><path class="cls-7" d="M154.94,11.87a8.74,8.74,0,0,0,7,10.86,14.91,14.91,0,0,0-7-10.86" transform="translate(-5.7 -4.97)"/><path class="cls-8" d="M138.35,39.82a5.8,5.8,0,0,0-2.09-.4,6.06,6.06,0,0,0-5.81,4.42l.51,0a8.76,8.76,0,0,0,7.39-4" transform="translate(-5.7 -4.97)"/><path class="cls-8" d="M139.45,37.29a8.48,8.48,0,0,0,.3-2.21,8.78,8.78,0,0,0-7.33-8.65,14.9,14.9,0,0,0,7,10.86" transform="translate(-5.7 -4.97)"/></svg>