<?xml version="1.0" encoding="UTF-8"?>
<svg id="Capa_1" xmlns="http://www.w3.org/2000/svg" version="1.1" viewBox="0 0 252.2 36">
  <!-- Generator: Adobe Illustrator 29.0.0, SVG Export Plug-In . SVG Version: 2.1.0 Build 186)  -->
  <defs>
    <style>
      .st0 {
        fill: #cc132f;
      }

      .st1 {
        fill: #003848;
      }

      .st2 {
        fill: #43584a;
      }

      .st3 {
        fill: #989f96;
      }

      .st4 {
        fill: #0098cb;
      }

      .st5 {
        fill: #ffcb00;
      }

      .st6 {
        fill: #004f8c;
      }

      .st7 {
        fill: #1d1d1b;
      }

      .st8 {
        fill: #b79e19;
      }

      .st9 {
        fill: #fff;
      }
    </style>
  </defs>
  <g>
    <path class="st8" d="M15.6,13.4c0,4.1-3.3,7.4-7.4,7.4S.7,17.5.7,13.4V1.5c0-.4.3-.7.7-.7h13.4c.4,0,.7.3.7.7v11.9ZM14.9,0H1.5C.7,0,0,.7,0,1.5v11.9c0,4.5,3.7,8.2,8.2,8.2s8.2-3.7,8.2-8.2V1.5c0-.8-.7-1.5-1.5-1.5"/>
    <polygon class="st0" points="4.5 1.5 3 1.5 4.5 3.1 4.5 1.5"/>
    <polygon class="st5" points="4.5 3 4.5 1.5 5.9 1.5 5.9 4.8 4.5 3.1 4.5 3"/>
    <polygon class="st0" points="5.9 1.5 7.4 1.5 7.4 6.4 5.9 4.8 5.9 1.5"/>
    <polygon class="st5" points="7.4 1.5 8.9 1.5 8.9 8.1 7.4 6.4 7.4 1.5"/>
    <polygon class="st0" points="8.9 1.5 10.4 1.5 10.4 9.7 8.9 8.1 8.9 1.5"/>
    <polygon class="st5" points="10.4 9.3 10.4 1.5 11.9 1.5 11.9 10.4 11.9 11.4 10.4 9.7 10.4 9.3"/>
    <polygon class="st0" points="11.9 1.5 13.4 1.5 13.4 13 11.9 11.4 11.9 1.5"/>
    <path class="st5" d="M13.4,13V1.5h1.5v11.9c0,.4,0,.8-.1,1.2l-1.4-1.5Z"/>
    <path class="st5" d="M1.5,13.4c0,1.6.6,3.1,1.5,4.2V7.3l-1.5-1.6v7.7Z"/>
    <path class="st0" d="M3,7.3v10.3c.4.5.9,1,1.5,1.4v-10l-1.5-1.6Z"/>
    <path class="st5" d="M4.5,8.9v10c.5.3,1,.6,1.5.7v-9.1l-1.5-1.6Z"/>
    <path class="st0" d="M5.9,19.7c.5.2,1,.3,1.5.3v-7.8l-1.5-1.6v9.1Z"/>
    <path class="st5" d="M7.4,18.9v1.1c.2,0,.5,0,.7,0s.5,0,.7,0v-6.2l-1.5-1.6v6.8Z"/>
    <path class="st0" d="M10.4,15.4l-1.5-1.6v6.2c.5,0,1-.2,1.5-.3v-4.2Z"/>
    <polygon class="st9" points="10.4 14.3 10.4 14.3 10.4 14.3 10.4 14.3"/>
    <path class="st5" d="M10.4,19.7c.5-.2,1-.4,1.5-.7v-1.9l-1.5-1.6v4.2Z"/>
    <path class="st0" d="M11.9,17.1v1.9c.3-.2.7-.5,1-.8l-1-1.1Z"/>
    <path class="st6" d="M13.4,17.6c.5-.6.9-1.4,1.2-2.2l-.8-.9L1.9,1.5h-.4v3s11.6,12.8,11.6,12.8l.3.3h0Z"/>
    <path d="M65.1,6.6c0-1.4-2-1.1-2-1.6s.3-.3.5-.3.4.1.6.3l.8-.5c-.4-.6-.8-.8-1.5-.8s-1.4.4-1.4,1.2c0,1.5,2.1.7,2.1,1.6s-.3.3-.5.3c-.4,0-.6-.1-.7-.4l-.9.2c.2.8.8,1.1,1.6,1.1s1.5-.4,1.5-1.3M59.2,5.5c0-.4.3-.6.6-.6s.5.3.6.6h-1.2ZM61.4,5.8c0-1.1-.6-1.9-1.5-1.9s-1.8.9-1.8,2,.7,2,1.8,2,1-.3,1.5-.7l-.7-.6c-.2.2-.5.4-.8.4s-.7-.3-.8-.8h2.2v-.3ZM57.5,6.9c-.2,0-.3,0-.3-.2V2.4h-1v4.3c0,.9.5,1.1,1.3,1.1v-.9ZM51.2,5.5c0-.4.3-.6.6-.6s.5.3.6.6h-1.2ZM53.4,5.8c0-1.1-.6-1.9-1.5-1.9s-1.8.9-1.8,2,.7,2,1.8,2,1-.3,1.5-.7l-.7-.6c-.2.2-.5.4-.8.4s-.7-.3-.8-.8h2.2v-.3h0ZM48.4,6.3c0,.3-.2.5-.5.5-.6,0-.6-.5-.6-1s0-1,.6-1,.5.2.5.5v1ZM49.6,7.6c0,0-.2-.6-.2-.6V2.4h-1.1v1.7c-.2-.1-.3-.2-.5-.2-1.2,0-1.6.9-1.6,2s.4,2,1.6,2,.5,0,.8-.2v.2c0,0,1-.3,1-.3ZM43.2,5.6c0-1.1-.5-1.8-1.6-1.8s-.6.1-.7.2v-.2h-.9v3.8h1.1v-2.3c0-.3.2-.6.5-.6.5,0,.6.3.6.7v2.1h1.1v-2.2h0ZM39.4,4.1c-.3-.2-.5-.3-.8-.3s-.7.3-.7.3v-.2h-.9v3.8h1.1v-2.4c0-.3.2-.5.6-.5s.3,0,.5.1l.4-.8ZM34.1,5.5c0-.4.3-.6.6-.6s.5.3.6.6h-1.2ZM36.3,5.8c0-1.1-.6-1.9-1.5-1.9s-1.8.9-1.8,2,.7,2,1.8,2,1-.3,1.5-.7l-.7-.6c-.2.2-.5.4-.8.4s-.7-.3-.8-.8h2.2v-.3h0ZM31.8,3.9l-.8,2.3-.7-2.3h-1.1l1.5,3.8h.9l1.5-3.8h-1.2ZM28,5.9c0,.5,0,1-.7,1s-.7-.5-.7-1,0-1,.7-1,.7.5.7,1M29,5.9c0-1.1-.5-2-1.8-2s-1.8.9-1.8,2,.5,2,1.8,2,1.8-.8,1.8-2M22.9,4.8v1h1c0,.6-.2,1.1-.9,1.1-1,0-1.2-.9-1.2-1.7s.2-1.7,1.2-1.7.8.2,1.1.6l.8-.7c-.5-.7-1-1-1.9-1-1.6,0-2.3,1.3-2.3,2.8s.6,2.8,2.2,2.8.8-.1,1.1-.5v.4h.9v-3h-2.1Z"/>
    <path d="M65.1,15.6c0-1.5-2.2-1.2-2.2-1.7s.3-.3.5-.3.5.1.6.3l.9-.5c-.4-.6-.8-.8-1.6-.8s-1.5.4-1.5,1.3c0,1.5,2.2,1.1,2.2,1.7s-.4.3-.5.3c-.4,0-.6-.1-.7-.4l-1,.3c.2.9.9,1.1,1.7,1.1.8,0,1.7-.5,1.7-1.4M61.4,12.9c-.3-.2-.6-.3-.9-.3s-.8.3-.8.3v-.2h-1v4.2h1.1v-2.6c0-.4.2-.6.6-.6s.3,0,.5.1l.4-.9ZM56.6,15.8c-.2.2-.5.3-.7.3s-.5-.1-.5-.4.3-.5.6-.5h.5c0,0,.2,0,.2,0v.7ZM57.7,16.1v-2.1c0-.8-.8-1.3-1.5-1.3s-1.4.3-1.7,1.1l1,.3c.1-.3.4-.4.7-.4s.5.1.5.4h0c0,.2,0,.2-.1.2,0,0-.4,0-.6,0-1.1,0-1.5.6-1.5,1.3s.7,1.4,1.5,1.4.7,0,.9-.3v.3c0,0,1.1-.3,1.1-.3l-.2-.6ZM51.3,14.4c0-.4.3-.6.7-.6s.6.3.6.6h-1.3ZM53.7,14.7c0-1.2-.6-2.1-1.7-2.1s-1.9,1-1.9,2.2.7,2.2,2,2.2,1.1-.3,1.6-.8l-.7-.7c-.2.2-.5.4-.9.4s-.8-.4-.8-.8h2.4v-.4h0ZM49.5,15.9c-.2,0-.3,0-.3-.3v-4.7h-1.1v4.7c0,.9.5,1.2,1.4,1.2v-1ZM46.1,15.8c-.2.2-.5.3-.7.3s-.5-.1-.5-.4.3-.5.6-.5h.5c0,0,.2,0,.2,0v.7ZM47.1,16.1v-2.1c0-.8-.8-1.3-1.5-1.3s-1.4.3-1.7,1.1l1,.3c.1-.3.4-.4.7-.4s.5.1.5.4h0c0,.2,0,.2-.1.2,0,0-.4,0-.6,0-1.1,0-1.5.6-1.5,1.3s.7,1.4,1.5,1.4.7,0,.9-.3v.3c0,0,1.1-.3,1.1-.3l-.2-.6ZM41.9,15.1c0,.6-.4.6-.9.6h-1.1v-1.3h1.1c.5,0,.9,0,.9.7M41.7,12.7c0,.5-.4.6-.8.6h-1v-1.2h1c.5,0,.8,0,.8.6M43.1,15.1c0-.5-.2-1-.6-1.3.3-.3.4-.7.4-1.1,0-1.3-.9-1.7-2-1.7h-2.2v5.9h2.3c1.2,0,2.1-.5,2.1-1.8M35,15.6c0-1.5-2.2-1.2-2.2-1.7s.3-.3.5-.3.5.1.6.3l.9-.5c-.4-.6-.8-.8-1.6-.8s-1.5.4-1.5,1.3c0,1.5,2.2,1.1,2.2,1.7s-.4.3-.5.3c-.4,0-.6-.1-.7-.4l-1,.3c.2.9.9,1.1,1.7,1.1.8,0,1.7-.5,1.7-1.4M28.6,14.4c0-.4.3-.6.7-.6s.6.3.6.6h-1.3ZM31,14.7c0-1.2-.6-2.1-1.7-2.1s-1.9,1-1.9,2.2.7,2.2,2,2.2,1.1-.3,1.6-.8l-.7-.7c-.2.2-.5.4-.9.4s-.8-.4-.8-.8h2.4v-.4h0ZM26.8,15.9c-.2,0-.3,0-.3-.3v-4.7h-1.1v4.7c0,.9.5,1.2,1.4,1.2v-1ZM24.5,15.9c-.2,0-.3,0-.3-.3v-4.7h-1.1v4.7c0,.9.5,1.2,1.4,1.2v-1ZM22,11h-1.2v5.9h1.2v-5.9Z"/>
    <path d="M24.7,32.1c0-1.3-.5-2.4-1.9-2.4s-1.9,1.2-1.9,2.4.5,2.4,1.9,2.4,1.9-1.2,1.9-2.4M24.2,32.1c0,.9-.2,1.9-1.4,1.9s-1.4-1-1.4-1.9.2-1.9,1.4-1.9c1.1,0,1.4,1,1.4,1.9M28,31.7c-.3-.4-.6-.6-1.2-.6-1,0-1.5.8-1.5,1.7s.5,1.7,1.5,1.7.8-.2,1.2-.5l-.4-.3c-.2.2-.5.4-.8.4-.8,0-1-.6-1-1.2s.2-1.2,1-1.2.6.2.8.4l.4-.3ZM31.3,31.2h-.5v2.2c0,.4-.4.7-.8.7-.7,0-.8-.4-.8-1v-1.9h-.5v1.9c0,.9.4,1.4,1.4,1.4s.6-.1.9-.4v.3h.5v-3.3h0ZM34.9,32.9c0-.9-.3-1.7-1.4-1.7s-.6.1-.9.5v-.4h-.5v4.8h.5v-1.8c.2.3.5.4.8.4,1,0,1.4-.8,1.4-1.7M34.4,32.9c0,.5,0,1.2-.9,1.2s-.8-.3-.8-.7v-1c0-.4.4-.7.8-.7.8,0,.9.7.9,1.2M38,33.9v-1.8c0-.6-.6-1-1.1-1s-1.1.2-1.3.8l.4.2c.1-.3.5-.4.8-.4s.7.2.7.5v.3c-.1.1-.3.1-.4.2,0,0-.4,0-.5,0-.7,0-1.1.4-1.1,1s.5,1,1.2,1,.7-.1,1-.4v.3c0,0,.5-.1.5-.1v-.5ZM37.5,33.8c-.3.2-.5.4-.9.4s-.7-.2-.7-.6.4-.6.7-.6h.5c.1,0,.2,0,.4-.1v.9h0ZM41.4,31.7c-.3-.4-.6-.6-1.2-.6-1,0-1.5.8-1.5,1.7s.5,1.7,1.5,1.7.8-.2,1.2-.5l-.4-.3c-.2.2-.5.4-.8.4-.8,0-1-.6-1-1.2s.2-1.2,1-1.2.6.2.8.4l.4-.3ZM42.8,30c0-.2-.2-.4-.4-.4s-.4.2-.4.4.2.4.4.4.4-.2.4-.4M42.7,31.2h-.5v3.3h.5v-3.3ZM46.4,32.8c0-1-.4-1.7-1.4-1.7s-1.4.7-1.4,1.7.4,1.7,1.4,1.7,1.4-.7,1.4-1.7M45.9,32.8c0,.6-.1,1.2-.9,1.2s-.9-.6-.9-1.2.1-1.2.9-1.2.9.6.9,1.2M44.9,29.8l-.6,1h.4l.7-1h-.6ZM49.7,30c0-.2-.2-.4-.4-.4s-.4.2-.4.4.2.4.4.4.4-.2.4-.4M49.6,31.2h-.5v3.3h.5v-3.3ZM55.7,34h-2.6v-1.7h2.2v-.5h-2.2v-1.5h2.6v-.5h-3.1v4.8h3.1v-.5ZM59.2,32.6c0-.9-.4-1.5-1.3-1.5s-.7.1-.9.4v-.4h-.5v3.3h.5v-2.1c0-.4.3-.7.8-.7.7,0,.9.4.9,1v1.9h.5v-1.9h0ZM62.6,32.7c0-.9-.4-1.6-1.3-1.6s-1.5.8-1.5,1.7.5,1.7,1.5,1.7.8-.2,1.1-.5l-.3-.3c-.2.2-.5.3-.8.3-.7,0-1-.5-1-1.1h2.2v-.2ZM60.4,32.6c0-.6.3-1,.9-1s.8.4.8,1h-1.7ZM65.3,31.3c-.2-.1-.4-.2-.6-.2-.3,0-.7.2-.9.5v-.4h-.5v3.3h.5v-2.2c0-.4.4-.7.8-.7s.3,0,.4,0l.2-.4ZM68.2,32.3c0-.2,0-.4-.1-.6.3-.1.4-.4.4-.7h-.4c0,.1,0,.3-.2.3-.2-.2-.5-.2-.8-.2-.8,0-1.2.4-1.2,1.1s.1.7.5.9c-.2.2-.4.4-.4.7,0,.4.4.5.7.5s.7-.1,1-.1.4.1.4.4c0,.5-.6.8-1.1.8s-.8-.2-.8-.5,0,0,0-.1h-.5c0,0,0,0,0,.1,0,.7.7.9,1.4.9s1.5-.5,1.5-1.2-.4-.8-.8-.8-.8.2-1.1.2-.2,0-.2-.2.1-.4.3-.5c.1,0,.2,0,.4,0,.8,0,1.2-.4,1.2-1.1M67.7,32.3c0,.5-.3.7-.7.7s-.7-.2-.7-.7.3-.7.7-.7.7.2.7.7M69.9,30c0-.2-.2-.4-.4-.4s-.4.2-.4.4.2.4.4.4.4-.2.4-.4M69.7,31.2h-.5v3.3h.5v-3.3ZM73.1,33.9v-1.8c0-.6-.6-1-1.1-1s-1.1.2-1.3.8l.4.2c.1-.3.5-.4.8-.4s.7.2.7.5v.3c-.1.1-.3.1-.4.2,0,0-.4,0-.5,0-.7,0-1.1.4-1.1,1s.5,1,1.2,1,.7-.1,1-.4v.3c0,0,.5-.1.5-.1v-.5ZM72.6,33.8c-.3.2-.5.4-.9.4s-.7-.2-.7-.6.4-.6.7-.6h.5c.1,0,.2,0,.4-.1v.9Z"/>
    <path d="M24,25.2c-.3.4-.6.6-1.1.6-1.1,0-1.4-1-1.4-1.9s.3-1.9,1.4-1.9.8.2,1.1.6l.4-.4c-.4-.5-.8-.7-1.5-.7-1.4,0-2,1.2-2,2.4s.5,2.4,2,2.4,1.1-.2,1.5-.8l-.4-.4ZM27.8,24.7c0-1-.4-1.7-1.4-1.7s-1.4.7-1.4,1.7.4,1.7,1.4,1.7,1.4-.7,1.4-1.7M27.2,24.7c0,.6-.1,1.2-.9,1.2s-.9-.6-.9-1.2.1-1.2.9-1.2.9.6.9,1.2M31.2,24.4c0-.9-.4-1.5-1.3-1.5s-.7.1-.9.4v-.4h-.5v3.3h.5v-2.1c0-.4.3-.7.8-.7.7,0,.9.4.9,1v1.9h.5v-1.9ZM34.4,25.4c0-1.2-2-.8-2-1.5s.4-.4.7-.4.6,0,.8.4l.4-.2c-.3-.5-.6-.6-1.2-.6s-1.2.3-1.2.9c0,1.2,2,.7,2,1.5s-.4.5-.8.5-.8-.1-.9-.5h-.5c.2.8.7,1,1.3,1s1.3-.3,1.3-1M37.7,24.5c0-.9-.4-1.6-1.3-1.6s-1.5.8-1.5,1.7.5,1.7,1.5,1.7.8-.2,1.1-.5l-.3-.3c-.2.2-.5.3-.8.3-.7,0-1-.5-1-1.1h2.2v-.2h0ZM35.5,24.4c0-.6.3-1,.9-1s.8.4.8,1h-1.7ZM39.3,25.9c-.3,0-.4-.2-.4-.4v-3.9h-.5v3.9c0,.6.3.8.9.8v-.4ZM40.9,25.9c-.3,0-.4-.2-.4-.4v-3.9h-.5v3.9c0,.6.3.8.9.8v-.4ZM44.2,24.5c0-.9-.4-1.6-1.3-1.6s-1.5.8-1.5,1.7.5,1.7,1.5,1.7.8-.2,1.1-.5l-.3-.3c-.2.2-.5.3-.8.3-.7,0-1-.5-1-1.1h2.2v-.2h0ZM42,24.4c0-.6.3-1,.9-1s.8.4.8,1h-1.7ZM46.9,23.1c-.2-.1-.4-.2-.6-.2-.3,0-.7.2-.9.5v-.4h-.5v3.3h.5v-2.2c0-.4.4-.7.8-.7s.3,0,.4,0l.2-.4ZM48.3,21.8c0-.2-.2-.4-.4-.4s-.4.2-.4.4.2.4.4.4.4-.2.4-.4M48.2,23h-.5v3.3h.5v-3.3ZM51.6,25.8v-1.8c0-.6-.6-1-1.1-1s-1.1.2-1.3.8l.4.2c.1-.3.5-.4.8-.4s.7.2.7.5v.3c-.1.1-.3.1-.4.2,0,0-.4,0-.5,0-.7,0-1.1.4-1.1,1s.5,1,1.2,1,.7-.1,1-.4v.3c0,0,.5-.1.5-.1v-.5ZM51.1,25.6c-.3.2-.5.4-.9.4s-.7-.2-.7-.6.4-.6.7-.6h.5c.1,0,.2,0,.4-.1v.9h0ZM57,26.2s-.1-.5-.1-.5v-4.2h-.5v1.8c-.2-.3-.5-.4-.8-.4-1,0-1.4.8-1.4,1.7s.3,1.7,1.4,1.7.7,0,.9-.4v.4c0,0,.5-.1.5-.1ZM56.3,25.2c0,.5-.4.7-.8.7-.8,0-.8-.7-.8-1.2s0-1.2.9-1.2.8.3.8.7v1ZM58.5,21.6c0-.2-.1-.3-.3-.3s-.3.1-.3.3v1.1s.1,0,.1,0l.5-.8v-.3ZM62.6,25.8h-2.6v-1.7h2.2v-.5h-2.2v-1.5h2.6v-.5h-3.1v4.8h3.1v-.5ZM67.9,24.4c0-.9-.3-1.5-1.3-1.5s-.8.2-1,.6c-.2-.4-.6-.6-1-.6s-.6.1-.8.4v-.4h-.5v3.3h.5v-2.2c0-.4.3-.7.7-.7.6,0,.8.5.8,1v1.9h.5v-1.8c0-.5,0-1.1.7-1.1s.7.5.7,1v1.9h.5v-1.9ZM71.4,24.7c0-.9-.3-1.7-1.4-1.7s-.6.1-.9.5v-.4h-.5v4.8h.5v-1.8c.2.3.5.4.8.4,1,0,1.4-.8,1.4-1.7M70.9,24.7c0,.5,0,1.2-.9,1.2s-.8-.3-.8-.7v-1c0-.4.4-.7.8-.7.8,0,.9.7.9,1.2M74.2,23.1c-.2-.1-.4-.2-.6-.2-.3,0-.7.2-.9.5v-.4h-.5v3.3h.5v-2.2c0-.4.4-.7.8-.7s.3,0,.4,0l.2-.4ZM77.2,24.5c0-.9-.4-1.6-1.3-1.6s-1.5.8-1.5,1.7.5,1.7,1.5,1.7.8-.2,1.1-.5l-.3-.3c-.2.2-.5.3-.8.3-.7,0-1-.5-1-1.1h2.2v-.2ZM75,24.4c0-.6.3-1,.9-1s.8.4.8,1h-1.7ZM80.4,25.4c0-1.2-2-.8-2-1.5s.4-.4.7-.4.6,0,.8.4l.4-.2c-.3-.5-.6-.6-1.2-.6s-1.2.3-1.2.9c0,1.2,2,.7,2,1.5s-.4.5-.8.5-.8-.1-.9-.5h-.5c.2.8.7,1,1.3,1s1.3-.3,1.3-1M83.4,25.8v-1.8c0-.6-.6-1-1.1-1s-1.1.2-1.3.8l.4.2c.1-.3.5-.4.8-.4s.7.2.7.5v.3c-.1.1-.3.1-.4.2,0,0-.4,0-.5,0-.7,0-1.1.4-1.1,1s.5,1,1.2,1,.7-.1,1-.4v.3c0,0,.5-.1.5-.1v-.5ZM83,25.6c-.3.2-.5.4-.9.4s-.7-.2-.7-.6.4-.6.7-.6h.5c.1,0,.2,0,.4-.1v.9ZM85,26c0-.2-.2-.4-.4-.4s-.4.2-.4.4v1.2h.2l.5-.9v-.3Z"/>
  </g>
  <rect class="st7" x="96.2" y="4.7" width=".9" height="26.6"/>
  <g>
    <polygon class="st1" points="143.9 35.8 108.4 35.8 108.4 .2 138.3 .2 138.3 1.8 110 1.8 110 34.2 142.3 34.2 142.3 5.8 143.9 5.8 143.9 35.8"/>
    <g>
      <path class="st4" d="M111.9,26.9h2.4c.6,0,1,.1,1.3.4.3.3.4.6.4,1s-.3.9-.8,1.1h0c.6.2,1,.7,1,1.4s-.2.9-.5,1.1c-.3.3-.8.4-1.4.4h-2.5v-5.4ZM114.2,29.1c.5,0,.8-.2.8-.6s-.3-.6-.8-.6h-1.2v1.3h1.2ZM113,31.4h1.3c.5,0,.8-.3.8-.7s-.4-.8-.9-.8h-1.2v1.5Z"/>
      <path class="st4" d="M119,31.9h0c-.2.3-.5.5-1.1.5s-1.4-.4-1.4-1.2.7-1.1,1.6-1.2c.6,0,.9-.1.9-.4s-.2-.5-.6-.5-.7.2-.7.5h-.9c0-.7.5-1.3,1.7-1.3s1.6.5,1.6,1.4v2c0,.3,0,.5.1.5h0s-1,0-1,0c0,0,0-.3-.1-.4ZM119,31v-.6c-.2.1-.5.2-.7.2-.5.1-.8.2-.8.6s.2.5.6.5c.6,0,.9-.4.9-.7Z"/>
      <path class="st4" d="M120.6,26.9h1v5.4h-1v-5.4Z"/>
      <path class="st4" d="M122,30.4c0-1.1.8-2,1.9-2s1.9,1,1.9,2.3h-2.8c0,.6.4,1,1,1s.6-.2.7-.5h1c-.1.7-.8,1.3-1.8,1.3s-2-.9-2-2.1ZM123,30h1.7c0-.5-.4-.8-.8-.8s-.8.3-.9.8Z"/>
      <path class="st4" d="M128.5,31.9h0c-.2.3-.5.5-1.1.5s-1.4-.4-1.4-1.2.7-1.1,1.6-1.2c.6,0,.9-.1.9-.4s-.2-.5-.6-.5-.7.2-.7.5h-.9c0-.7.5-1.3,1.7-1.3s1.6.5,1.6,1.4v2c0,.3,0,.5.1.5h0s-1,0-1,0c0,0,0-.3-.1-.4ZM128.5,31v-.6c-.2.1-.5.2-.7.2-.5.1-.8.2-.8.6s.2.5.6.5c.6,0,.9-.4.9-.7Z"/>
      <path class="st4" d="M131.1,29.1h0c.2-.4.5-.7,1-.7s.2,0,.2,0v.9h0c-.7,0-1.2.3-1.2,1.1v1.9h-1v-3.9h1v.6Z"/>
      <path class="st4" d="M132.4,31.1h1c0,.4.4.6.8.6s.7-.2.7-.4-.5-.4-1-.5c-.7-.1-1.4-.3-1.4-1.2s.7-1.2,1.6-1.2,1.6.5,1.7,1.3h-.9c0-.4-.3-.6-.7-.6s-.7.2-.7.4.5.4,1.1.5c.6.1,1.4.3,1.4,1.2s-.7,1.2-1.6,1.2-1.8-.5-1.8-1.4Z"/>
    </g>
    <g>
      <path class="st1" d="M113.8,19.8h1.1l1.9,5.4h-1.1l-.4-1.1h-1.9l-.4,1.1h-1.1l1.9-5.4ZM113.6,23.2h1.4l-.5-1.6c0-.3-.2-.8-.2-.8h0s-.1.5-.2.8l-.5,1.6Z"/>
      <path class="st1" d="M117.2,19.8h2.1c1.4,0,2.4,1.2,2.4,2.8s-.3,1.6-.9,2.1c-.4.3-.9.5-1.6.5h-2v-5.4ZM119.2,24.3c1,0,1.4-.6,1.4-1.7s-.5-1.8-1.4-1.8h-.9v3.5h.8Z"/>
      <path class="st1" d="M122.2,19.8h2.5c1,0,1.7.6,1.7,1.5s-.3,1.1-1,1.3h0c.5.2.8.5.8,1.1,0,.8,0,1.3.2,1.4h0c0,0-1,0-1,0-.1,0-.2-.7-.2-1.2,0-.6-.4-.9-1.1-.9h-.9v2.2h-1.1v-5.4ZM123.3,22.2h1.2c.6,0,.9-.3.9-.7s-.3-.8-.9-.8h-1.2v1.5Z"/>
    </g>
    <polygon class="st4" points="143.9 5 142.3 5 142.3 1.8 139.2 1.8 139.2 .2 143.9 .2 143.9 5"/>
    <polygon class="st4" points="141.1 7.6 139.7 7.6 139.7 4.4 136.5 4.4 136.5 3 141.1 3 141.1 7.6"/>
  </g>
  <rect class="st7" x="155.1" y="4.7" width=".9" height="26.6"/>
  <g>
    <g>
      <path class="st7" d="M209.6,7.7h.8v5.9h-.8v-5.9Z"/>
      <path class="st7" d="M215.8,9.6c.3.3.4.7.4,1.3v2.7h-.8v-2.5c0-.4-.1-.7-.3-.9-.2-.2-.5-.3-.9-.3-.4,0-.7.1-1,.4-.2.2-.4.6-.4,1v2.4h-.8v-4.4h.8v.9c.3-.6.9-1,1.7-1,.5,0,.9.2,1.2.5Z"/>
      <path class="st7" d="M221.8,7.4v6.2h-.8v-.9c-.2.3-.4.5-.7.7-.3.2-.6.2-1,.2s-.8,0-1.1-.3c-.3-.2-.6-.5-.8-.8-.2-.3-.3-.7-.3-1.2s0-.8.3-1.2c.2-.3.4-.6.8-.8.3-.2.7-.3,1.1-.3s.7,0,1,.2c.3.2.5.4.7.7v-2.7h.8ZM220.3,12.8c.2-.1.4-.3.5-.6.1-.2.2-.5.2-.8s0-.6-.2-.8c-.1-.2-.3-.4-.5-.6-.2-.1-.5-.2-.8-.2s-.6,0-.8.2c-.2.1-.4.3-.5.6-.1.2-.2.5-.2.8s0,.6.2.8c.1.2.3.4.5.6.2.1.5.2.8.2s.5,0,.8-.2Z"/>
      <path class="st7" d="M227.4,9.1v4.4h-.8v-.9c-.3.6-.8,1-1.6,1-.5,0-.9-.2-1.2-.5-.3-.3-.4-.7-.4-1.3v-2.7h.8v2.5c0,.4.1.7.3.9.2.2.5.3.8.3.4,0,.7-.2,1-.4.2-.3.4-.7.4-1.1v-2.2h.8ZM225.9,7.3l.8.4-1,.8h-.7c0,0,.9-1.2.9-1.2Z"/>
      <path class="st7" d="M230.7,9.9c-.2,0-.4-.1-.6-.1s-.4,0-.6.1c-.1,0-.2.2-.2.4s0,.3.2.4c.2,0,.4.2.7.3.3,0,.6.2.8.3.2,0,.4.2.5.4.1.2.2.4.2.7,0,.4-.2.7-.5,1-.3.2-.7.3-1.2.3s-.7,0-1-.2c-.3-.1-.6-.3-.8-.5l.3-.6c.2.2.4.3.7.4.3.1.5.2.8.2s.5,0,.6-.1c.2,0,.2-.2.2-.4s0-.4-.2-.5c-.2-.1-.4-.2-.8-.3-.3,0-.5-.2-.7-.3-.2,0-.3-.2-.5-.4-.1-.2-.2-.4-.2-.7,0-.4.2-.7.5-.9.3-.2.7-.3,1.1-.3s.5,0,.8.1c.3,0,.5.2.7.3l-.3.6c-.2-.1-.4-.2-.6-.3Z"/>
      <path class="st7" d="M235.2,13.3c-.3.2-.7.3-1,.3s-.6-.1-.9-.3c-.2-.2-.3-.5-.3-1v-2.5h-.6v-.6h.6v-1.2h.8v1.2h1.4v.6h-1.4v2.3c0,.2,0,.4.1.5,0,.1.2.2.4.2s.4,0,.7-.2l.2.6Z"/>
      <path class="st7" d="M237.6,9.4c.3-.2.6-.3,1-.3v.8c-.5,0-.8.1-1.1.4-.3.3-.4.6-.5,1v2.3h-.8v-4.4h.8v1c.1-.3.4-.6.6-.7Z"/>
      <path class="st7" d="M240.2,7.5c0,0,.1.2.1.4s0,.3-.1.4c0,0-.2.1-.3.1s-.3,0-.3-.1c0,0-.1-.2-.1-.4s0-.3.1-.4c0,0,.2-.1.3-.1s.3,0,.3.1ZM239.5,9.1h.8v4.4h-.8v-4.4Z"/>
      <path class="st7" d="M244.5,13.6v-.6c-.3.4-.8.7-1.6.7s-.6,0-.8-.2c-.2-.1-.4-.3-.5-.5-.1-.2-.2-.4-.2-.7,0-.4.1-.7.4-.9.3-.2.7-.4,1.2-.4h1.4v-.2c0-.3,0-.6-.3-.7-.2-.2-.5-.3-.8-.3s-.9.2-1.4.5l-.3-.5c.3-.2.6-.4.9-.5.3,0,.6-.1,1-.1.6,0,1,.1,1.3.4.3.3.5.7.5,1.1v2.9s-.8,0-.8,0ZM244.1,12.7c.3-.2.4-.4.5-.7v-.4h-1.3c-.4,0-.6,0-.8.2-.2.1-.3.3-.3.5s0,.4.3.5c.2.1.4.2.7.2s.7,0,.9-.3Z"/>
      <path class="st7" d="M209.6,16.5h.8v5.2h2.6v.7h-3.4v-5.9Z"/>
      <path class="st7" d="M217,18.2c.3.2.6.5.8.8.2.3.3.7.3,1.2s0,.8-.3,1.2c-.2.3-.5.6-.8.8-.3.2-.7.3-1.2.3s-.8,0-1.2-.3c-.3-.2-.6-.5-.8-.8-.2-.3-.3-.7-.3-1.2s0-.8.3-1.2c.2-.3.5-.6.8-.8.3-.2.7-.3,1.2-.3s.8,0,1.2.3ZM215.1,18.8c-.2.1-.4.3-.5.6-.1.2-.2.5-.2.8s0,.6.2.8c.1.2.3.4.5.6.2.1.5.2.8.2s.5,0,.8-.2c.2-.1.4-.3.5-.6.1-.2.2-.5.2-.8s0-.6-.2-.8c-.1-.2-.3-.4-.5-.6-.2-.1-.5-.2-.8-.2s-.5,0-.8.2Z"/>
      <path class="st7" d="M221.1,18.6c-.3,0-.6,0-.8.2-.2.1-.4.3-.5.5-.1.2-.2.5-.2.8s0,.6.2.8c.1.2.3.4.5.6.2.1.5.2.8.2s.5,0,.8-.1c.2,0,.4-.2.6-.4l.4.5c-.2.3-.5.4-.8.6-.3.1-.7.2-1.1.2s-.8,0-1.2-.3c-.3-.2-.6-.5-.8-.8-.2-.3-.3-.7-.3-1.2s0-.8.3-1.2c.2-.3.4-.6.8-.8.3-.2.7-.3,1.2-.3s.7,0,1,.2c.3.1.6.3.8.5l-.4.5c-.4-.3-.8-.5-1.3-.5Z"/>
      <path class="st7" d="M226.5,22.4v-.6c-.3.4-.8.7-1.6.7s-.6,0-.8-.2c-.2-.1-.4-.3-.5-.5-.1-.2-.2-.4-.2-.7,0-.4.1-.7.4-.9.3-.2.7-.4,1.2-.4h1.4v-.2c0-.3,0-.6-.3-.7s-.5-.3-.8-.3-.9.2-1.4.5l-.3-.5c.3-.2.6-.4.9-.4.3,0,.6-.1,1-.1.6,0,1,.1,1.3.4.3.3.5.7.5,1.1v2.9s-.8,0-.8,0ZM226.1,21.5c.3-.2.4-.4.5-.7v-.4h-1.3c-.4,0-.6,0-.8.2-.2.1-.3.3-.3.5s0,.4.3.5c.2.1.4.2.7.2s.7,0,.9-.3Z"/>
      <path class="st7" d="M228.8,16.2h.8v6.2h-.8v-6.2Z"/>
      <path class="st7" d="M212.2,26.2c-.3,0-.6-.1-.8-.1s-.6,0-.8.2c-.2.1-.3.3-.3.5s0,.4.2.5c.1.1.3.2.5.3.2,0,.4.2.7.3.4.1.7.2,1,.4.2.1.5.3.6.5.2.2.3.5.3.9s0,.6-.3.9c-.2.3-.4.4-.8.6-.3.1-.7.2-1.1.2s-.9,0-1.3-.3c-.4-.2-.8-.4-1.1-.7l.4-.7c.3.3.6.5.9.6.3.1.7.2,1,.2s.7,0,.9-.2c.2-.2.3-.4.3-.6s0-.4-.2-.5c-.1-.1-.3-.2-.5-.3-.2,0-.4-.2-.8-.3-.4-.1-.7-.2-1-.3-.2-.1-.5-.3-.6-.5-.2-.2-.3-.5-.3-.9s0-.6.3-.8c.2-.2.4-.4.7-.6.3-.1.7-.2,1.1-.2s.7,0,1,.2c.3.1.6.2.9.4l-.3.7c-.3-.2-.6-.3-.9-.4Z"/>
      <path class="st7" d="M217.8,27c.3.2.6.5.8.8.2.3.3.7.3,1.2s0,.8-.3,1.2c-.2.3-.5.6-.8.8-.3.2-.7.3-1.2.3s-.8,0-1.2-.3c-.3-.2-.6-.5-.8-.8-.2-.3-.3-.7-.3-1.2s0-.8.3-1.2c.2-.3.5-.6.8-.8.3-.2.7-.3,1.2-.3s.8,0,1.2.3ZM215.9,27.6c-.2.1-.4.3-.5.6-.1.2-.2.5-.2.8s0,.6.2.8c.1.2.3.4.5.6.2.1.5.2.8.2s.5,0,.8-.2c.2-.1.4-.3.5-.6.1-.2.2-.5.2-.8s0-.6-.2-.8c-.1-.2-.3-.4-.5-.6-.2-.1-.5-.2-.8-.2s-.5,0-.8.2Z"/>
      <path class="st7" d="M221.9,27.5c-.2,0-.4-.1-.6-.1s-.4,0-.6.1c-.1,0-.2.2-.2.4s0,.3.2.4c.2,0,.4.2.7.3.3,0,.6.2.8.3.2,0,.4.2.5.4.1.2.2.4.2.7,0,.4-.2.7-.5,1-.3.2-.7.3-1.2.3s-.7,0-1-.2c-.3-.1-.6-.3-.8-.5l.3-.6c.2.2.4.3.7.4.3.1.5.2.8.2s.5,0,.6-.1c.2,0,.2-.2.2-.4s0-.4-.2-.5c-.2-.1-.4-.2-.8-.3-.3,0-.5-.2-.7-.3-.2,0-.3-.2-.5-.4-.1-.2-.2-.4-.2-.7,0-.4.2-.7.5-.9.3-.2.7-.3,1.1-.3s.5,0,.8.1c.3,0,.5.2.7.3l-.3.6c-.2-.1-.4-.2-.6-.3Z"/>
      <path class="st7" d="M226.3,30.9c-.3.2-.7.3-1,.3s-.6-.1-.9-.3c-.2-.2-.3-.5-.3-1v-2.5h-.6v-.6h.6v-1.2h.8v1.2h1.4v.6h-1.4v2.3c0,.2,0,.4.1.5,0,.1.2.2.4.2s.4,0,.7-.2l.2.6Z"/>
      <path class="st7" d="M230.6,27.4c.4.4.5,1,.5,1.7s0,.2,0,.3h-3.5c0,.4.2.7.5.9.3.2.6.4,1,.4s.5,0,.7-.1c.2,0,.4-.2.6-.4l.4.4c-.2.2-.5.4-.8.5-.3.1-.6.2-1,.2s-.8,0-1.2-.3c-.3-.2-.6-.5-.8-.8-.2-.3-.3-.7-.3-1.2s0-.8.3-1.2c.2-.3.4-.6.8-.8.3-.2.7-.3,1.2-.3.7,0,1.2.2,1.6.6ZM230.4,28.7c0-.4-.2-.7-.4-1-.2-.2-.6-.3-1-.3s-.7.1-1,.4c-.3.2-.4.6-.5.9h2.8Z"/>
      <path class="st7" d="M236,27.2c.3.3.4.7.4,1.3v2.7h-.8v-2.5c0-.4-.1-.7-.3-.9-.2-.2-.5-.3-.9-.3-.4,0-.7.1-1,.4-.2.2-.4.6-.4,1v2.4h-.8v-4.4h.8v.9c.3-.6.9-1,1.7-1,.5,0,.9.2,1.2.5Z"/>
      <path class="st7" d="M238.6,25.2c0,0,.1.2.1.4s0,.3-.1.4c0,0-.2.1-.3.1s-.3,0-.3-.1c0,0-.1-.2-.1-.4s0-.3.1-.4c0,0,.2-.1.3-.1s.3,0,.3.1ZM237.8,26.8h.8v4.4h-.8v-4.4Z"/>
      <path class="st7" d="M243.8,27c.3.2.6.5.8.8.2.3.3.7.3,1.2s0,.8-.3,1.2c-.2.3-.4.6-.7.8-.3.2-.7.3-1.1.3s-.7,0-1-.2c-.3-.2-.5-.4-.7-.7v.9h-.8v-6.2h.8v2.7c.2-.3.4-.5.7-.7.3-.2.6-.2,1-.2s.8,0,1.1.3ZM243.3,30.4c.2-.1.4-.3.5-.6.1-.2.2-.5.2-.8s0-.6-.2-.8c-.1-.2-.3-.4-.5-.6-.2-.1-.5-.2-.8-.2s-.5,0-.8.2c-.2.1-.4.3-.5.6-.1.2-.2.5-.2.8s0,.6.2.8c.1.2.3.4.5.6.2.1.5.2.8.2s.5,0,.8-.2Z"/>
      <path class="st7" d="M246,25h.8v6.2h-.8v-6.2Z"/>
      <path class="st7" d="M251.7,27.4c.4.4.5,1,.5,1.7s0,.2,0,.3h-3.5c0,.4.2.7.5.9.3.2.6.4,1,.4s.5,0,.7-.1c.2,0,.4-.2.6-.4l.4.4c-.2.2-.5.4-.8.5-.3.1-.6.2-1,.2s-.8,0-1.2-.3c-.3-.2-.6-.5-.8-.8-.2-.3-.3-.7-.3-1.2s0-.8.3-1.2c.2-.3.4-.6.8-.8.3-.2.7-.3,1.2-.3.7,0,1.2.2,1.6.6ZM251.5,28.7c0-.4-.2-.7-.4-1-.2-.2-.6-.3-1-.3s-.7.1-1,.4c-.3.2-.4.6-.5.9h2.8Z"/>
    </g>
    <g>
      <polygon class="st2" points="166.8 7.5 172.7 4.8 172.7 31.3 166.8 31.3 166.8 7.5"/>
      <polygon class="st2" points="190.8 26.2 188.4 31.3 175.7 31.3 175.7 7.5 181.5 4.8 181.5 26.2 190.8 26.2"/>
      <path class="st3" d="M204.4,23.4c0,1.6-.4,3.1-1.3,4.3-.9,1.2-2.1,2.1-3.6,2.7-1.5.6-3.3.9-5.2.9h-5.9l2.4-5.1h3.6c1.2,0,2.1-.2,2.8-.6.7-.4,1-1,1-1.9s-.2-1.2-.7-1.6c-.4-.4-1-.8-1.7-1-.7-.3-1.7-.6-2.9-.9-1.8-.5-3.2-1-4.3-1.5-1.1-.5-2.1-1.2-2.9-2.2-.8-1-1.2-2.4-1.2-4s.4-2.9,1.3-4.1c.8-1.2,2-2.1,3.5-2.7,1.5-.6,3.2-.9,5.2-.9s3.5.3,5.2.8c1.7.5,3.2,1.2,4.5,2.1h0s0,0,0,0l-2.2,4.8h0c0,0,0,0,0,0-1.3-.8-2.7-1.4-4.2-1.9-1.5-.5-2.7-.7-3.8-.7s-1.8.2-2.3.5c-.6.4-.9.9-.9,1.6s.4,1.6,1.2,2c.8.5,2.1,1,3.9,1.5,1.7.5,3.2,1,4.3,1.5,1.1.5,2.1,1.3,2.9,2.3.8,1,1.2,2.4,1.2,4.1Z"/>
    </g>
  </g>
</svg>